<svg xmlns="http://www.w3.org/2000/svg" width="21.617" height="16.213" viewBox="0 0 21.617 16.213">
  <path id="Path_1171" data-name="Path 1171" d="M19.366,144.213H2.251A2.321,2.321,0,0,1,0,141.827V130.385A2.321,2.321,0,0,1,2.251,128H19.366a2.321,2.321,0,0,1,2.251,2.385v11.442a2.321,2.321,0,0,1-2.251,2.386Zm1.351-13.154a2.047,2.047,0,0,0-1.983-2.1H2.883a2.046,2.046,0,0,0-1.982,2.1v.757H20.717v-.757ZM.9,134.674v6.48a2.047,2.047,0,0,0,1.982,2.1H18.734a2.047,2.047,0,0,0,1.983-2.1v-6.48Zm13.059,7.153,1.351-2.86h4.5l-1.351,2.86Z" transform="translate(0 -128)" fill="#272636"/>
</svg>
