<svg xmlns="http://www.w3.org/2000/svg" width="29.81" height="26.562" viewBox="0 0 29.81 26.562">
  <g id="Path_99" data-name="Path 99" transform="translate(-5.051 -2.6)" fill="none" stroke-linecap="round" stroke-linejoin="round">
    <path d="M20.361,4l13.1,11.746-13.1,11.093V19.661a15.334,15.334,0,0,0-13.911,8.1c0-11.093,2.995-16.584,13.911-16.584Z" stroke="none"/>
    <path d="M 20.36123847961426 4.000003814697266 L 20.36123847961426 11.17811393737793 C 9.445388793945312 11.17811393737793 6.450557708740234 16.66875457763672 6.450557708740234 27.76220321655273 C 6.450557708740234 27.76220321655273 10.1731071472168 19.66135406494141 20.36123847961426 19.66135406494141 L 20.36123847961426 26.83946418762207 L 33.46025848388672 15.74601364135742 L 20.36123847961426 4.000003814697266 M 20.3609676361084 2.599979400634766 C 20.69959831237793 2.599979400634766 21.03389930725098 2.722755432128906 21.29588890075684 2.957683563232422 L 34.3949089050293 14.70369338989258 C 34.69619750976562 14.97386360168457 34.86584854125977 15.36119270324707 34.8601188659668 15.76582336425781 C 34.85438919067383 16.17046356201172 34.67384719848633 16.55283355712891 34.36503601074219 16.81436347961426 L 21.26601791381836 27.90781402587891 C 20.84993934631348 28.26018142700195 20.26714134216309 28.33894348144531 19.77246856689453 28.10964393615723 C 19.27778816223145 27.88033294677734 18.96123886108398 27.38470458984375 18.96123886108398 26.83946418762207 L 18.96123886108398 21.11898040771484 C 10.82715797424316 21.79964828491211 7.754390716552734 28.27775192260742 7.722679138183594 28.34677314758301 C 7.447971343994141 28.94458198547363 6.794071197509766 29.27046775817871 6.151359558105469 29.12986373901367 C 5.508659362792969 28.98925399780273 5.050559997558594 28.42011260986328 5.050559997558594 27.76220321655273 C 5.050559997558594 21.40677261352539 6.022178649902344 17.30388259887695 8.200958251953125 14.45889282226562 C 9.44053840637207 12.84028434753418 11.03860855102539 11.67622375488281 13.08647727966309 10.90020370483398 C 14.74894714355469 10.27022743225098 16.68088912963867 9.910360336303711 18.96123886108398 9.808422088623047 L 18.96123886108398 4.000003814697266 C 18.96123886108398 3.447593688964844 19.28607749938965 2.946823120117188 19.79049873352051 2.721624374389648 C 19.97359466552734 2.639881134033203 20.16801452636719 2.599979400634766 20.3609676361084 2.599979400634766 Z" stroke="none" fill="#000"/>
  </g>
</svg>
