<svg id="Group_196" data-name="Group 196" xmlns="http://www.w3.org/2000/svg" width="26.93" height="26.93" viewBox="0 0 26.93 26.93">
  <rect id="Rectangle_94" data-name="Rectangle 94" width="26.93" height="26.93" fill="rgba(255,255,255,0.01)"/>
  <path id="Path_84" data-name="Path 84" d="M15,7.484,16.642,6h6.569l1.642,1.484Z" transform="translate(-6.801 -1.524)" fill="#060606" stroke="#060606" stroke-linejoin="round" stroke-width="2"/>
  <path id="Path_460" data-name="Path 460" d="M3,0H19.034a3,3,0,0,1,3,3V14.137a3,3,0,0,1-3,3H3a3,3,0,0,1-3-3V3A3,3,0,0,1,3,0Z" transform="translate(2.448 6.12)" fill="none" stroke="#060606" stroke-width="2"/>
  <path id="Path_85" data-name="Path 85" d="M20.38,27.759A4.38,4.38,0,1,0,16,23.38,4.38,4.38,0,0,0,20.38,27.759Z" transform="translate(-7.254 -8.808)" fill="none" stroke="#060606" stroke-linejoin="round" stroke-width="2"/>
  <line id="Line_6" data-name="Line 6" x2="0.768" transform="translate(19.017 10.37)" fill="none" stroke="#060606" stroke-linecap="round" stroke-width="2"/>


</svg>
