<svg xmlns="http://www.w3.org/2000/svg" width="23.32" height="23.418" viewBox="0 0 23.32 23.418">
  <path id="category" d="M8.425,11.229H2.411A2.413,2.413,0,0,1,0,8.818V2.411A2.413,2.413,0,0,1,2.411,0H8.425a2.413,2.413,0,0,1,2.41,2.411V8.818a2.413,2.413,0,0,1-2.41,2.41ZM2.152,1.09A1.046,1.046,0,0,0,1.107,2.136V9.093a1.047,1.047,0,0,0,1.045,1.045H8.683A1.046,1.046,0,0,0,9.728,9.093V2.136A1.046,1.046,0,0,0,8.683,1.09H2.152ZM18,23.32a5.4,5.4,0,1,1,5.4-5.4A5.41,5.41,0,0,1,18,23.32Zm0-9.759a4.356,4.356,0,1,0,4.356,4.356A4.361,4.361,0,0,0,18,13.56Zm3.008-2.331H14.993a2.414,2.414,0,0,1-2.411-2.411V2.411A2.413,2.413,0,0,1,14.993,0h6.015a2.413,2.413,0,0,1,2.41,2.411V8.818A2.413,2.413,0,0,1,21.008,11.229ZM14.735,1.09A1.046,1.046,0,0,0,13.69,2.136V9.093a1.046,1.046,0,0,0,1.045,1.045h6.531a1.046,1.046,0,0,0,1.045-1.045V2.136A1.046,1.046,0,0,0,21.266,1.09H14.735ZM8.425,23.16H2.411A2.413,2.413,0,0,1,0,20.749V14.342a2.414,2.414,0,0,1,2.411-2.411H8.425a2.413,2.413,0,0,1,2.41,2.411v6.408a2.413,2.413,0,0,1-2.41,2.411ZM2.152,13.021a1.046,1.046,0,0,0-1.045,1.045v6.958A1.046,1.046,0,0,0,2.152,22.07H8.683a1.046,1.046,0,0,0,1.044-1.045V14.067a1.046,1.046,0,0,0-1.044-1.045H2.152Z" transform="translate(0 23.418) rotate(-90)" fill="#ff7600"/>
</svg>
