<svg xmlns="http://www.w3.org/2000/svg" width="12.549" height="12.549" viewBox="0 0 12.549 12.549">
  <g id="Group_860" data-name="Group 860" transform="translate(-4.5 -4.5)">
    <path id="Path_371" data-name="Path 371" d="M13,7.259v-1.4A.855.855,0,0,1,13.855,5h7.408a.855.855,0,0,1,.855.855v7.408a.855.855,0,0,1-.855.855h-1.42" transform="translate(-5.569)" fill="none" stroke="#a9a9a9" stroke-linecap="round" stroke-linejoin="round" stroke-width="1"/>
    <path id="Path_372" data-name="Path 372" d="M13.263,13H5.855A.855.855,0,0,0,5,13.855v7.408a.855.855,0,0,0,.855.855h7.408a.855.855,0,0,0,.855-.855V13.855A.855.855,0,0,0,13.263,13Z" transform="translate(0 -5.569)" fill="none" stroke="#a9a9a9" stroke-linejoin="round" stroke-width="1"/>
  </g>
</svg>
