<svg xmlns="http://www.w3.org/2000/svg" width="13.075" height="13.075" viewBox="0 0 13.075 13.075">
  <g id="Group_860" data-name="Group 860" transform="translate(-4.5 -4.5)">
    <path id="Path_371" data-name="Path 371" d="M13,7.362V5.894A.894.894,0,0,1,13.894,5h7.746a.894.894,0,0,1,.894.894v7.746a.894.894,0,0,1-.894.894H20.155" transform="translate(-5.458)" fill="none" stroke="#ff7600" stroke-linecap="round" stroke-linejoin="round" stroke-width="1"/>
    <path id="Path_372" data-name="Path 372" d="M13.639,13H5.894A.894.894,0,0,0,5,13.894v7.746a.894.894,0,0,0,.894.894h7.746a.894.894,0,0,0,.894-.894V13.894A.894.894,0,0,0,13.639,13Z" transform="translate(0 -5.458)" fill="none" stroke="#ff7600" stroke-linejoin="round" stroke-width="1"/>
  </g>
</svg>
