<svg xmlns="http://www.w3.org/2000/svg" width="20.101" height="19.07" viewBox="0 0 20.101 19.07">
  <g id="Group_1095" data-name="Group 1095" transform="translate(1.2 1.2)">
    <g id="Path_67" data-name="Path 67" transform="translate(-14.526 -18.316)" fill="none" stroke-linejoin="round">
      <path d="M23.376,18.316,20.671,23.79l-6.145.883,4.451,4.314-1.064,6L23.376,32.1l5.464,2.887-1.056-6,4.443-4.314-6.111-.883Z" stroke="none"/>
      <path d="M 23.37613868713379 18.31579971313477 L 20.67104911804199 23.78956985473633 L 14.52639770507812 24.67280960083008 L 18.97761917114258 28.98681831359863 L 17.91354942321777 34.98577880859375 L 23.37613868713379 32.09890747070312 L 28.83985900878906 34.98577880859375 L 27.78363037109375 28.98681831359863 L 32.22708129882812 24.67280960083008 L 26.11653900146484 23.78956985473633 L 23.37613868713379 18.31579971313477 M 23.37613868713379 17.11579513549805 C 23.83035659790039 17.11579513549805 24.24575996398926 17.37228012084961 24.44917869567871 17.77859115600586 L 26.90884971618652 22.69161796569824 L 32.39875030517578 23.48514938354492 C 32.85140991210938 23.55057907104492 33.22751998901367 23.86763000488281 33.36857986450195 24.30270004272461 C 33.50963973999023 24.73777008056641 33.39112854003906 25.21518898010254 33.06298065185547 25.53378868103027 L 29.0757007598877 29.40491676330566 L 30.02167892456055 34.7776985168457 C 30.10112953186035 35.22892761230469 29.91670036315918 35.68601989746094 29.54634857177734 35.95576858520508 C 29.17598915100098 36.22550964355469 28.68436050415039 36.26082611083984 28.27925872802734 36.04677963256836 L 23.37619590759277 33.45614242553711 L 18.47423934936523 36.04673004150391 C 18.06890106201172 36.26094436645508 17.57691764831543 36.22549057006836 17.20648956298828 35.95534896850586 C 16.8360595703125 35.68521881103516 16.65192031860352 35.22761917114258 16.73198890686035 34.77619934082031 L 17.68472862243652 29.4048900604248 L 13.69126129150391 25.53451919555664 C 13.36256790161133 25.2159595489502 13.24372863769531 24.73816871643066 13.38488006591797 24.30274963378906 C 13.52603912353516 23.86734008789062 13.9025993347168 23.55013847351074 14.35567092895508 23.48501968383789 L 19.87509536743164 22.691650390625 L 22.30033874511719 17.78414916992188 C 22.50210952758789 17.37585830688477 22.9176197052002 17.11697769165039 23.37303924560547 17.11579895019531 C 23.37406730651855 17.11579513549805 23.3751106262207 17.11579513549805 23.37613868713379 17.11579513549805 Z" stroke="none" fill="#cbd0cc"/>
    </g>
  </g>
</svg>
