<svg xmlns="http://www.w3.org/2000/svg" width="21.822" height="19.514" viewBox="0 0 21.822 19.514">
  <g id="Path_99" data-name="Path 99" transform="translate(-5.151 -2.7)" fill="none" stroke-linecap="round" stroke-linejoin="round">
    <path d="M15.773,4,6.451,12.358l9.322,7.893V15.144a10.913,10.913,0,0,1,9.9,5.764c0-7.893-2.131-11.8-9.9-11.8Z" stroke="none"/>
    <path d="M 15.77277183532715 3.999998092651367 L 6.450551986694336 12.35767841339111 L 15.77277183532715 20.25103759765625 L 15.77277183532715 15.14356803894043 C 23.02339172363281 15.14356803894043 25.67263221740723 20.9075984954834 25.67263221740723 20.9075984954834 C 25.67263221740723 13.01423835754395 23.54129219055176 9.107468605041504 15.77277183532715 9.107468605041504 L 15.77277183532715 3.999998092651367 M 15.77302551269531 2.699975967407227 C 15.95224761962891 2.699975967407227 16.13274192810059 2.737024307250977 16.30280303955078 2.812957763671875 C 16.77116203308105 3.022089004516602 17.07277297973633 3.487068176269531 17.07277297973633 3.999998092651367 L 17.07277297973633 7.844400405883789 C 18.60328102111816 7.934989929199219 19.91556739807129 8.192901611328125 21.05755233764648 8.625558853149414 C 22.54838180541992 9.190388679504395 23.76309204101562 10.07573795318604 24.66792297363281 11.25700855255127 C 26.26183319091797 13.33787822723389 26.97263145446777 16.31422805786133 26.97263145446777 20.9075984954834 C 26.97263145446777 21.52084732055664 26.54666137695312 22.0564079284668 25.94696235656738 22.18459892272949 C 25.3483943939209 22.31253623962402 24.74441528320312 22.01128387451172 24.49284172058105 21.45365524291992 C 24.46182823181152 21.38940620422363 23.84542846679688 20.13586044311523 22.48453140258789 18.91233825683594 C 20.96993255615234 17.55063819885254 19.15394401550293 16.74691009521484 17.07277297973633 16.5144157409668 L 17.07277297973633 20.25103759765625 C 17.07277297973633 20.75730895996094 16.77886199951172 21.217529296875 16.31955337524414 21.43045806884766 C 15.86022758483887 21.64339828491211 15.31908226013184 21.5703067779541 14.93271255493164 21.2431583404541 L 5.610492706298828 13.34979820251465 C 5.32368278503418 13.10694789886475 5.156002044677734 12.75185871124268 5.15068244934082 12.37607860565186 C 5.145362854003906 12.00029850006104 5.302932739257812 11.64059829711914 5.582752227783203 11.38972854614258 L 14.90497207641602 3.032049179077148 C 15.14821815490723 2.813972473144531 15.45865821838379 2.699975967407227 15.77302551269531 2.699975967407227 Z" stroke="none" fill="#ff7600"/>
  </g>
</svg>
