<svg xmlns="http://www.w3.org/2000/svg" width="23" height="19.961" viewBox="0 0 23 19.961">
  <path id="heart-fill" d="M14,20.408c-.492.308-.9.546-1.192.709-.153.086-.308.17-.463.252h0a.75.75,0,0,1-.686,0q-.234-.122-.465-.252a31.147,31.147,0,0,1-4.8-3.34C3.8,15.572,1,12.331,1,8.513A5.959,5.959,0,0,1,6.736,2.5,6.035,6.035,0,0,1,12,5.605,6.036,6.036,0,0,1,17.264,2.5,5.96,5.96,0,0,1,23,8.514c0,3.818-2.8,7.06-5.389,9.262A31.146,31.146,0,0,1,14,20.408Z" transform="translate(-0.5 -2)" fill="#fff" stroke="#707070" stroke-width="1"/>
</svg>
