<svg xmlns="http://www.w3.org/2000/svg" xmlns:xlink="http://www.w3.org/1999/xlink" width="32" height="32" viewBox="0 0 32 32">
  <defs>
    <linearGradient id="linear-gradient" x1="0.153" y1="0.145" x2="0.846" y2="0.858" gradientUnits="objectBoundingBox">
      <stop offset="0" stop-color="#fe8c00"/>
      <stop offset="1" stop-color="#fc4a1a"/>
    </linearGradient>
    <linearGradient id="linear-gradient-2" x1="-2.996" y1="-2.985" x2="4.518" y2="1.699" xlink:href="#linear-gradient"/>
  </defs>
  <g id="Group_804" data-name="Group 804" transform="translate(-18 -117)">
    <circle id="Ellipse_56" data-name="Ellipse 56" cx="16" cy="16" r="16" transform="translate(18 117)" fill="url(#linear-gradient)"/>
    <g id="Group_803" data-name="Group 803" transform="translate(24.037 122.037)">
      <rect id="Rectangle_277" data-name="Rectangle 277" width="20" height="21" transform="translate(-0.037 -0.037)" fill="rgba(255,255,255,0.01)"/>
      <path id="Path_311" data-name="Path 311" d="M9,10.981v9.963H20.7V10.981L14.851,6Z" transform="translate(-4.889 -3.259)" fill="none"/>
      <path id="Path_312" data-name="Path 312" d="M6.034,20.944V10.981L4,12.642,12.135,6l8.135,6.642-2.034-1.66v9.963Z" transform="translate(-2.173 -3.259)" fill="#fff" stroke="#fff" stroke-linecap="round" stroke-linejoin="round" stroke-width="2"/>
      <path id="Path_313" data-name="Path 313" d="M19,29v5.938h4.568V29Z" transform="translate(-11.321 -17.253)" fill="none" stroke="#fff" stroke-linejoin="round" stroke-width="2"/>
      <path id="Path_314" data-name="Path 314" d="M9,42H20.7" transform="translate(-4.889 -24.315)" fill="#ff7600" stroke="#fff" stroke-linecap="round" stroke-width="2"/>
    </g>
    <path id="Rectangle_278" data-name="Rectangle 278" d="M1.5,0h0A1.5,1.5,0,0,1,3,1.5V5A0,0,0,0,1,3,5H0A0,0,0,0,1,0,5V1.5A1.5,1.5,0,0,1,1.5,0Z" transform="translate(32.5 136.2)" fill="url(#linear-gradient-2)"/>
  </g>
</svg>
