<svg xmlns="http://www.w3.org/2000/svg" width="27.932" height="24.95" viewBox="0 0 27.932 24.95">
  <g id="Group_199" data-name="Group 199" transform="translate(-1.308 -5)">
    <path id="Path_86" data-name="Path 86" d="M29.771,6H8.161A2.048,2.048,0,0,0,6,7.912V27.037A2.048,2.048,0,0,0,8.161,28.95h21.61a2.048,2.048,0,0,0,2.161-1.912V7.912A2.048,2.048,0,0,0,29.771,6Z" transform="translate(-3.692 0)" fill="none" stroke="#666" stroke-linecap="round" stroke-linejoin="round" stroke-width="2"/>
    <path id="Path_87" data-name="Path 87" d="M15.907,18.815A2.907,2.907,0,1,0,13,15.907,2.907,2.907,0,0,0,15.907,18.815Z" transform="translate(26.928 29.242) rotate(180)" fill="none" stroke="#666" stroke-linecap="round" stroke-linejoin="round" stroke-width="2"/>
    <path id="Path_88" data-name="Path 88" d="M30.538,31.815,23.04,26l-6.816,5.233-4.771-3.489L6,31.233" transform="translate(-2.941 -7.353)" fill="none" stroke="#666" stroke-linecap="round" stroke-linejoin="round" stroke-width="2"/>
  </g>
</svg>
