<svg xmlns="http://www.w3.org/2000/svg" width="20.101" height="19.07" viewBox="0 0 20.101 19.07">
  <g id="Group_1094" data-name="Group 1094" transform="translate(1.2 1.2)">
    <g id="Path_67" data-name="Path 67" transform="translate(-14.526 -18.316)" fill="#ff7600" stroke-linejoin="round">
      <path d="M 17.10832977294922 36.08996200561523 L 17.32276916503906 34.8809928894043 L 18.33117485046387 29.19584274291992 L 14.10882949829102 25.10365104675293 L 13.23095989227295 24.25284194946289 L 14.44102954864502 24.07890129089355 L 20.27307319641113 23.24060440063477 L 22.8382396697998 18.04997062683105 L 23.37265968322754 16.96858024597168 L 23.91265869140625 18.04720115661621 L 26.51269149780273 23.2405948638916 L 32.31290817260742 24.07897186279297 L 33.52032089233398 24.25349044799805 L 32.6450309753418 25.10329055786133 L 28.42966461181641 29.19585990905762 L 29.4307689666748 34.88174057006836 L 29.64330863952637 36.08891296386719 L 28.5595588684082 35.51628112792969 L 23.37617492675781 32.77753067016602 L 18.19389915466309 35.51626205444336 L 17.10832977294922 36.08996200561523 Z" stroke="none"/>
      <path d="M 23.37613868713379 18.31579971313477 L 20.67104911804199 23.78956985473633 L 14.52639770507812 24.67280960083008 L 18.97761917114258 28.98681831359863 L 17.91354942321777 34.98577880859375 L 23.37613868713379 32.09890747070312 L 28.83985900878906 34.98577880859375 L 27.78363037109375 28.98681831359863 L 32.22708129882812 24.67280960083008 L 26.11653900146484 23.78956985473633 L 23.37613868713379 18.31579971313477 M 23.37613868713379 17.11579513549805 C 23.83035659790039 17.11579513549805 24.24575996398926 17.37228012084961 24.44917869567871 17.77859115600586 L 26.90884971618652 22.69161796569824 L 32.39875030517578 23.48514938354492 C 32.85140991210938 23.55057907104492 33.22751998901367 23.86763000488281 33.36857986450195 24.30270004272461 C 33.50963973999023 24.73777008056641 33.39112854003906 25.21518898010254 33.06298065185547 25.53378868103027 L 29.0757007598877 29.40491676330566 L 30.02167892456055 34.7776985168457 C 30.10112953186035 35.22892761230469 29.91670036315918 35.68601989746094 29.54634857177734 35.95576858520508 C 29.17598915100098 36.22550964355469 28.68436050415039 36.26082611083984 28.27925872802734 36.04677963256836 L 23.37619590759277 33.45614242553711 L 18.47423934936523 36.04673004150391 C 18.06890106201172 36.26094436645508 17.57691764831543 36.22549057006836 17.20648956298828 35.95534896850586 C 16.8360595703125 35.68521881103516 16.65192031860352 35.22761917114258 16.73198890686035 34.77619934082031 L 17.68472862243652 29.4048900604248 L 13.69126129150391 25.53451919555664 C 13.36256790161133 25.2159595489502 13.24372863769531 24.73816871643066 13.38488006591797 24.30274963378906 C 13.52603912353516 23.86734008789062 13.9025993347168 23.55013847351074 14.35567092895508 23.48501968383789 L 19.87509536743164 22.691650390625 L 22.30033874511719 17.78414916992188 C 22.50210952758789 17.37585830688477 22.9176197052002 17.11697769165039 23.37303924560547 17.11579895019531 C 23.37406730651855 17.11579513549805 23.3751106262207 17.11579513549805 23.37613868713379 17.11579513549805 Z" stroke="none" fill="#ff7600"/>
    </g>
  </g>
</svg>
