<svg xmlns="http://www.w3.org/2000/svg" width="25" height="25" viewBox="0 0 25 25">
  <g id="Group_1313" data-name="Group 1313" transform="translate(-201 -736)" style="isolation: isolate">
    <g id="Path_1203" data-name="Path 1203" transform="translate(201 736)" fill="#ff7600">
      <path d="M 12.5 24.39999961853027 L 0.833329975605011 24.39999961853027 C 0.7046700119972229 24.39999961853027 0.6000000238418579 24.29533004760742 0.6000000238418579 24.16666984558105 L 0.6000000238418579 12.5 C 0.6000000238418579 9.321390151977539 1.837820053100586 6.333040237426758 4.085430145263672 4.085430145263672 C 6.333040237426758 1.837820053100586 9.321390151977539 0.6000000238418579 12.5 0.6000000238418579 C 15.67860984802246 0.6000000238418579 18.66695976257324 1.837820053100586 20.91456985473633 4.085430145263672 C 23.16217994689941 6.333040237426758 24.39999961853027 9.321390151977539 24.39999961853027 12.5 C 24.39999961853027 15.67860984802246 23.16217994689941 18.66695976257324 20.91456985473633 20.91456985473633 C 18.66695976257324 23.16217994689941 15.67860984802246 24.39999961853027 12.5 24.39999961853027 Z" stroke="none"/>
      <path d="M 12.5 1.200000762939453 C 9.481659889221191 1.200000762939453 6.643980026245117 2.375410079956055 4.509689331054688 4.509689331054688 C 2.375410079956055 6.643980026245117 1.200000762939453 9.481659889221191 1.200000762939453 12.5 L 1.200000762939453 23.79999923706055 L 12.5 23.79999923706055 C 15.51834011077881 23.79999923706055 18.35601997375488 22.62458992004395 20.49031066894531 20.49031066894531 C 22.62458992004395 18.35601997375488 23.79999923706055 15.51834011077881 23.79999923706055 12.5 C 23.79999923706055 9.481659889221191 22.62458992004395 6.643980026245117 20.49031066894531 4.509689331054688 C 18.35601997375488 2.375410079956055 15.51834011077881 1.200000762939453 12.5 1.200000762939453 M 12.5 0 C 19.40356063842773 0 25 5.596439361572266 25 12.5 C 25 19.40356063842773 19.40356063842773 25 12.5 25 L 0.8333301544189453 25 C 0.3731002807617188 25 0 24.62689971923828 0 24.16666984558105 L 0 12.5 C 0 5.596439361572266 5.596439361572266 0 12.5 0 Z" stroke="none" fill="#ff7600"/>
    </g>
    <line id="Line_160" data-name="Line 160" x2="11.364" transform="translate(207.25 744.523)" fill="none" stroke="#fff" stroke-linecap="round" stroke-width="1.2"/>
    <line id="Line_161" data-name="Line 161" x2="11.364" transform="translate(207.25 749.068)" fill="none" stroke="#fff" stroke-linecap="round" stroke-width="1.2"/>
    <line id="Line_162" data-name="Line 162" x2="5.682" transform="translate(207.25 753.898)" fill="none" stroke="#fff" stroke-linecap="round" stroke-width="1.2"/>
  </g>
</svg>
