<svg xmlns="http://www.w3.org/2000/svg" width="25" height="25" viewBox="0 0 25 25">
  <g id="Group_1313" data-name="Group 1313" transform="translate(-201 -736)">
    <g id="Rectangle_432" data-name="Rectangle 432" transform="translate(201 736)" fill="none" stroke="#ff7600" stroke-width="1.2">
      <path d="M12.5,0h0A12.5,12.5,0,0,1,25,12.5v0A12.5,12.5,0,0,1,12.5,25H.833A.833.833,0,0,1,0,24.167V12.5A12.5,12.5,0,0,1,12.5,0Z" stroke="none"/>
      <path d="M12.5.6h0A11.9,11.9,0,0,1,24.4,12.5v0A11.9,11.9,0,0,1,12.5,24.4H.931A.331.331,0,0,1,.6,24.069V12.5A11.9,11.9,0,0,1,12.5.6Z" fill="none"/>
    </g>
    <line id="Line_160" data-name="Line 160" x2="11.364" transform="translate(207.25 744.523)" fill="none" stroke="#ff7600" stroke-linecap="round" stroke-width="1.2"/>
    <line id="Line_161" data-name="Line 161" x2="11.364" transform="translate(207.25 749.068)" fill="none" stroke="#ff7600" stroke-linecap="round" stroke-width="1.2"/>
    <line id="Line_162" data-name="Line 162" x2="5.682" transform="translate(207.25 753.898)" fill="none" stroke="#ff7600" stroke-linecap="round" stroke-width="1.2"/>
  </g>
</svg>
