<svg xmlns="http://www.w3.org/2000/svg" width="12.99" height="12.784" viewBox="0 0 12.99 12.784">
  <g id="Group_2823" data-name="Group 2823" transform="translate(-4.973 -5.179)">
    <path id="Path_1081" data-name="Path 1081" d="M31.856,10.587A4.273,4.273,0,0,0,27,5.727" transform="translate(-14.441)" fill="none" stroke="#a9a9a9" stroke-linecap="round" stroke-linejoin="round" stroke-width="1"/>
    <path id="Path_1082" data-name="Path 1082" d="M29.61,15.179a1.973,1.973,0,0,0-2.243-2.243" transform="translate(-14.69 -4.856)" fill="none" stroke="#a9a9a9" stroke-linecap="round" stroke-linejoin="round" stroke-width="1"/>
    <path id="Path_1083" data-name="Path 1083" d="M8.405,8.794a.657.657,0,0,1,.575.338l.8,1.449a.658.658,0,0,1,.013.613l-.775,1.55A4.356,4.356,0,0,0,12.278,16l1.549-.775a.658.658,0,0,1,.614.013l1.453.808a.658.658,0,0,1,.338.575v1.668a1.215,1.215,0,0,1-1.594,1.191,15.863,15.863,0,0,1-5.845-3.246,15.863,15.863,0,0,1-3.246-5.845A1.215,1.215,0,0,1,6.738,8.794Z" transform="translate(0 -2.091)" fill="none" stroke="#a9a9a9" stroke-linejoin="round" stroke-width="1"/>
  </g>
</svg>
