<svg xmlns="http://www.w3.org/2000/svg" width="26.667" height="25" viewBox="0 0 26.667 25">
  <g id="Group_1321" data-name="Group 1321" transform="translate(0 -64)">
    <g id="Path_591" data-name="Path 591" transform="translate(0 -554.767)" fill="#ff7600">
      <path d="M 26.05286026000977 643.1666259765625 L 0.6133211255073547 643.1666259765625 C 0.7891625165939331 639.281005859375 2.713169813156128 636.5938110351562 6.933929920196533 634.3140258789062 C 8.983344078063965 635.8975830078125 11.19052124023438 636.7000122070312 13.50000953674316 636.7000122070312 C 15.83507633209229 636.7000122070312 18.03842163085938 635.8844604492188 19.89939308166504 634.336181640625 C 23.45516395568848 636.4712524414062 25.85116004943848 638.8584594726562 26.05286026000977 643.1666259765625 Z" stroke="none"/>
      <path d="M 6.883193969726562 635.0263061523438 C 5.080211639404297 636.0369262695312 3.802289962768555 637.0820922851562 2.894550323486328 638.2821655273438 C 1.97038459777832 639.5039672851562 1.431146621704102 640.913818359375 1.25994873046875 642.5665893554688 L 25.40811920166016 642.5665893554688 C 25.2415714263916 640.9340209960938 24.71653366088867 639.5708618164062 23.7915096282959 638.3428344726562 C 22.93147468566895 637.2010498046875 21.72865867614746 636.1735229492188 19.9460563659668 635.0676879882812 C 18.04923629760742 636.53125 15.837890625 637.300048828125 13.50000953674316 637.300048828125 C 11.17312526702881 637.300048828125 8.95081901550293 636.5357666015625 6.883193969726562 635.0263061523438 M 7 633.5999755859375 C 8.833339691162109 635.1001586914062 11 636.1000366210938 13.50000953674316 636.1000366210938 C 16.00000953674316 636.1000366210938 18.16666984558105 635.1001586914062 19.83333969116211 633.5999755859375 C 23.83333969116211 635.9334106445312 26.66667938232422 638.5999755859375 26.66667938232422 643.7666015625 L 0 643.7666015625 C 0 638.5999755859375 2.833330154418945 635.7665405273438 7 633.5999755859375 Z" stroke="none" fill="#ff7600"/>
    </g>
    <g id="Path_592" data-name="Path 592" transform="translate(-218.167 0)" fill="#ff7600">
      <path d="M 231.4999847412109 78.73331451416016 C 229.7249145507812 78.73331451416016 227.9660034179688 77.99246978759766 226.6742858886719 76.70072937011719 C 225.3366851806641 75.36312866210938 224.6000366210938 73.57532501220703 224.6000366210938 71.66666412353516 C 224.6000366210938 69.79798889160156 225.3167572021484 68.03007507324219 226.6181488037109 66.68861389160156 C 227.9248046875 65.34174346923828 229.6585235595703 64.59999847412109 231.4999847412109 64.59999847412109 C 233.3414459228516 64.59999847412109 235.0751953125 65.34174346923828 236.3818664550781 66.68861389160156 C 237.6832733154297 68.03007507324219 238.3999938964844 69.79798889160156 238.3999938964844 71.66666412353516 C 238.3999938964844 73.53534698486328 237.6832733154297 75.30324554443359 236.3818664550781 76.64470672607422 C 235.0751953125 77.99156951904297 233.3414459228516 78.73331451416016 231.4999847412109 78.73331451416016 Z" stroke="none"/>
      <path d="M 231.4999847412109 78.13331604003906 C 233.177734375 78.13331604003906 234.758544921875 77.45627593994141 235.9512176513672 76.22691345214844 C 237.1434173583984 74.99803924560547 237.7999877929688 73.37850952148438 237.7999877929688 71.66666412353516 C 237.7999877929688 69.95482635498047 237.1434173583984 68.33529663085938 235.9512023925781 67.10640716552734 C 234.758544921875 65.87703704833984 233.177734375 65.19999694824219 231.4999847412109 65.19999694824219 C 229.8222351074219 65.19999694824219 228.241455078125 65.87703704833984 227.0487976074219 67.10640716552734 C 225.8565979003906 68.33528900146484 225.2000274658203 69.95482635498047 225.2000274658203 71.66666412353516 C 225.2000274658203 73.41505432128906 225.874267578125 75.05218505859375 227.0985412597656 76.27646636962891 C 228.2785949707031 77.45652008056641 229.8828582763672 78.13331604003906 231.4999847412109 78.13331604003906 M 231.4999847412109 79.33331298828125 C 227.5 79.33331298828125 224.0000305175781 76 224.0000305175781 71.66666412353516 C 224.0000305175781 67.5 227.3333129882812 63.99999618530273 231.4999847412109 63.99999618530273 C 235.6666870117188 63.99999618530273 238.9999847412109 67.5 238.9999847412109 71.66666412353516 C 238.9999847412109 75.83333587646484 235.6666870117188 79.33331298828125 231.4999847412109 79.33331298828125 Z" stroke="none" fill="#ff7600"/>
    </g>
  </g>
</svg>
