<svg xmlns="http://www.w3.org/2000/svg" width="8.533" height="8" viewBox="0 0 8.533 8">
  <g id="Group_1321" data-name="Group 1321" transform="translate(0 -64)">
    <g id="Path_591" data-name="Path 591" transform="translate(0 -564.853)">
      <path d="M 7.998655796051025 636.3534545898438 L 0.5333025455474854 636.3534545898438 C 0.6622714400291443 635.4409790039062 1.173340559005737 634.7825317382812 2.195407629013062 634.1941528320312 C 2.85989785194397 634.6629028320312 3.573127746582031 634.900146484375 4.31999683380127 634.900146484375 C 5.067877292633057 634.900146484375 5.776262760162354 634.662841796875 6.389092445373535 634.2103271484375 C 7.27131175994873 634.767578125 7.854857444763184 635.371337890625 7.998655796051025 636.3534545898438 Z" stroke="none"/>
      <path d="M 2.18599796295166 634.7859497070312 C 1.695780754089355 635.1065673828125 1.37524938583374 635.4476928710938 1.19244909286499 635.8534545898438 L 7.342314720153809 635.8534545898438 C 7.168750286102295 635.4744873046875 6.86607837677002 635.1480712890625 6.390534400939941 634.8124389648438 C 5.762650012969971 635.1989135742188 5.058785438537598 635.400146484375 4.31999683380127 635.400146484375 C 3.571691513061523 635.400146484375 2.856430530548096 635.1939086914062 2.18599796295166 634.7859497070312 M 2.239996910095215 633.60009765625 C 2.826666831970215 634.0801391601562 3.519997119903564 634.400146484375 4.31999683380127 634.400146484375 C 5.119997024536133 634.400146484375 5.813336849212646 634.0801391601562 6.346666812896729 633.60009765625 C 7.626667022705078 634.3468017578125 8.533336639404297 635.2001342773438 8.533336639404297 636.8534545898438 L -2.86102294921875e-06 636.8534545898438 C -2.86102294921875e-06 635.2001342773438 0.9066667556762695 634.2933959960938 2.239996910095215 633.60009765625 Z" stroke="none" fill="#000"/>
    </g>
    <g id="Path_592" data-name="Path 592" transform="translate(-222.133 0)">
      <path d="M 226.4000091552734 68.40665435791016 C 225.3523712158203 68.40665435791016 224.5000457763672 67.5303955078125 224.5000457763672 66.45332336425781 C 224.5000457763672 65.37625122070312 225.3523712158203 64.49999237060547 226.4000091552734 64.49999237060547 C 227.4476623535156 64.49999237060547 228.3000030517578 65.37625122070312 228.3000030517578 66.45332336425781 C 228.3000030517578 67.5303955078125 227.4476623535156 68.40665435791016 226.4000091552734 68.40665435791016 Z" stroke="none"/>
      <path d="M 226.4000091552734 67.90665435791016 C 227.1719665527344 67.90665435791016 227.8000030517578 67.25469207763672 227.8000030517578 66.45332336425781 C 227.8000030517578 65.65195465087891 227.1719665527344 64.99999237060547 226.4000091552734 64.99999237060547 C 225.6280670166016 64.99999237060547 225.0000457763672 65.65195465087891 225.0000457763672 66.45332336425781 C 225.0000457763672 67.25469207763672 225.6280670166016 67.90665435791016 226.4000091552734 67.90665435791016 M 226.4000091552734 68.90665435791016 C 225.1200256347656 68.90665435791016 224.0000457763672 67.83999633789062 224.0000457763672 66.45332336425781 C 224.0000457763672 65.12000274658203 225.0666809082031 63.99999237060547 226.4000091552734 63.99999237060547 C 227.7333679199219 63.99999237060547 228.8000030517578 65.12000274658203 228.8000030517578 66.45332336425781 C 228.8000030517578 67.78666687011719 227.7333679199219 68.90665435791016 226.4000091552734 68.90665435791016 Z" stroke="none" fill="#000"/>
    </g>
  </g>
</svg>
