<svg xmlns="http://www.w3.org/2000/svg" width="8.971" height="9.213" viewBox="0 0 8.971 9.213">
  <path id="magnify" d="M48.375,42.667a.419.419,0,0,0,0,.838h1.87L47.679,46.14a.427.427,0,0,0,0,.592.4.4,0,0,0,.577,0L50.822,44.1v1.921a.408.408,0,1,0,.816,0V43.5a.827.827,0,0,0-.816-.838H48.375Zm-1.751,5.148a.4.4,0,0,0-.577,0L43.482,50.45V48.53a.408.408,0,1,0-.816,0v2.513a.827.827,0,0,0,.816.838h2.447a.419.419,0,0,0,0-.838h-1.87l2.566-2.635a.427.427,0,0,0,0-.592Z" transform="translate(-42.667 -42.667)" fill="#303133"/>
</svg>
