<svg xmlns="http://www.w3.org/2000/svg" width="20" height="20" viewBox="0 0 20 20">
  <g id="Group_1313" data-name="Group 1313" transform="translate(-201 -736)">
    <g id="Rectangle_432" data-name="Rectangle 432" transform="translate(201 736)" fill="none" stroke="#111" stroke-width="1.3">
      <path d="M10,0h0A10,10,0,0,1,20,10v0A10,10,0,0,1,10,20H.667A.667.667,0,0,1,0,19.333V10A10,10,0,0,1,10,0Z" stroke="none"/>
      <path d="M10,.65h0A9.35,9.35,0,0,1,19.35,10v0A9.35,9.35,0,0,1,10,19.35H.878a.228.228,0,0,1-.228-.228V10A9.35,9.35,0,0,1,10,.65Z" fill="none"/>
    </g>
    <line id="Line_160" data-name="Line 160" x2="9.091" transform="translate(206 742.818)" fill="none" stroke="#111" stroke-linecap="round" stroke-width="1.3"/>
    <line id="Line_161" data-name="Line 161" x2="9.091" transform="translate(206 746.455)" fill="none" stroke="#111" stroke-linecap="round" stroke-width="1.3"/>
    <line id="Line_162" data-name="Line 162" x2="4.545" transform="translate(206 750.318)" fill="none" stroke="#111" stroke-linecap="round" stroke-width="1.3"/>
  </g>
</svg>
