<svg xmlns="http://www.w3.org/2000/svg" width="19.152" height="19.151" viewBox="0 0 19.152 19.151">
  <g id="size_table" data-name="size table" transform="translate(-63.164 -63.189)">
    <path id="Path_1186" data-name="Path 1186" d="M68.765,82.34a.593.593,0,0,1-.42-.174l-5.007-5.007a.6.6,0,0,1,0-.841L76.293,63.363a.6.6,0,0,1,.841,0l5.008,5.006a.6.6,0,0,1,0,.841L69.186,82.166a.593.593,0,0,1-.42.174Zm-4.166-5.6L68.765,80.9,80.881,68.79l-4.167-4.166L64.6,76.739Z" transform="translate(0 0)" fill="#2c2c2c"/>
    <path id="Path_1187" data-name="Path 1187" d="M158.834,149.525a.428.428,0,0,1-.3-.126l-1.874-1.874a.429.429,0,1,1,.607-.607l1.874,1.874a.429.429,0,0,1-.3.733Zm-.518,2.721a.428.428,0,0,1-.3-.126l-2.975-2.975a.429.429,0,1,1,.607-.607l2.975,2.975a.429.429,0,0,1-.3.733Zm-2.721.518a.428.428,0,0,1-.3-.126l-1.874-1.874a.429.429,0,1,1,.607-.607l1.873,1.874a.429.429,0,0,1-.3.733Zm-.518,2.721a.427.427,0,0,1-.3-.126l-2.975-2.975a.429.429,0,1,1,.607-.607l2.975,2.975a.429.429,0,0,1-.3.733Zm-2.721.518a.427.427,0,0,1-.3-.126L150.179,154a.429.429,0,1,1,.607-.607l1.874,1.874a.429.429,0,0,1-.3.733Zm-.518,2.721a.428.428,0,0,1-.3-.126l-2.975-2.975a.429.429,0,1,1,.607-.607l2.975,2.975a.429.429,0,0,1-.3.733Zm-2.721.518a.427.427,0,0,1-.3-.126l-1.874-1.873a.429.429,0,1,1,.607-.607l1.874,1.874a.429.429,0,0,1-.3.733Z" transform="translate(-81.866 -81.819)" fill="#2c2c2c"/>
  </g>
</svg>
