<svg xmlns="http://www.w3.org/2000/svg" width="13.85" height="13.85" viewBox="0 0 13.85 13.85">
  <g id="Group_2781" data-name="Group 2781" transform="translate(-3.6 -3.6)">
    <path id="Path_1064" data-name="Path 1064" d="M17.05,17.05,4,4V17.05Z" transform="translate(0 0)" fill="none" stroke="#262626" stroke-linecap="round" stroke-linejoin="round" stroke-width="0.8"/>
    <path id="Path_1065" data-name="Path 1065" d="M13,26.915h3.915L13,23Z" transform="translate(-6.064 -12.801)" fill="none" fill-rule="evenodd"/>
    <path id="Path_1066" data-name="Path 1066" d="M13,26.915h3.915L13,23Z" transform="translate(-6.064 -12.801)" fill="none" fill-rule="evenodd"/>
    <path id="Path_1067" data-name="Path 1067" d="M13,26.915h3.915L13,23Z" transform="translate(-6.064 -12.801)" fill="none" fill-rule="evenodd"/>
    <path id="Path_1068" data-name="Path 1068" d="M13,26.915h3.915L13,23Z" transform="translate(-6.064 -12.801)" fill="none" fill-rule="evenodd"/>
    <path id="Path_1069" data-name="Path 1069" d="M13,26.915h3.915L13,23Z" transform="translate(-6.064 -12.801)" fill="none" stroke="#262626" stroke-linecap="round" stroke-linejoin="round" stroke-width="0.8" fill-rule="evenodd"/>
    <path id="Path_1070" data-name="Path 1070" d="M13,26.915h3.915L13,23Z" transform="translate(-6.064 -12.801)" fill="none" stroke="#262626" stroke-linecap="round" stroke-linejoin="round" stroke-width="0.8" fill-rule="evenodd"/>
    <path id="Path_1071" data-name="Path 1071" d="M13,26.915h3.915L13,23Z" transform="translate(-6.064 -12.801)" fill="none" stroke="#262626" stroke-linecap="round" stroke-linejoin="round" stroke-width="0.8" fill-rule="evenodd"/>
    <path id="Path_1072" data-name="Path 1072" d="M13,26.915h3.915L13,23Z" transform="translate(-6.064 -12.801)" fill="none" stroke="#262626" stroke-linecap="round" stroke-linejoin="round" stroke-width="0.6" fill-rule="evenodd"/>
    <path id="Path_1073" data-name="Path 1073" d="M30,41.979V41" transform="translate(-17.518 -24.929)" fill="none" stroke="#262626" stroke-linecap="round" stroke-linejoin="round" stroke-width="0.6"/>
    <path id="Path_1074" data-name="Path 1074" d="M24,41.979V41" transform="translate(-13.475 -24.929)" fill="none" stroke="#262626" stroke-linecap="round" stroke-linejoin="round" stroke-width="0.6"/>
    <path id="Path_1075" data-name="Path 1075" d="M18,41.979V41" transform="translate(-9.433 -24.929)" fill="none" stroke="#262626" stroke-linecap="round" stroke-linejoin="round" stroke-width="0.6"/>
    <path id="Path_1076" data-name="Path 1076" d="M12,41.979V41" transform="translate(-5.39 -24.929)" fill="none" stroke="#262626" stroke-linecap="round" stroke-linejoin="round" stroke-width="0.6"/>
    <path id="Path_1077" data-name="Path 1077" d="M4,36h.979" transform="translate(0 -21.56)" fill="none" stroke="#262626" stroke-linecap="round" stroke-linejoin="round" stroke-width="0.6"/>
    <path id="Path_1078" data-name="Path 1078" d="M4,30h.979" transform="translate(0 -17.518)" fill="none" stroke="#262626" stroke-linecap="round" stroke-linejoin="round" stroke-width="0.6"/>
    <path id="Path_1079" data-name="Path 1079" d="M4,24h.979" transform="translate(0 -13.475)" fill="none" stroke="#262626" stroke-linecap="round" stroke-linejoin="round" stroke-width="0.6"/>
    <path id="Path_1080" data-name="Path 1080" d="M4,18h.979" transform="translate(0 -9.433)" fill="none" stroke="#262626" stroke-linecap="round" stroke-linejoin="round" stroke-width="0.6"/>
  </g>
</svg>
