<svg xmlns="http://www.w3.org/2000/svg" xmlns:xlink="http://www.w3.org/1999/xlink" width="390" height="150.5" viewBox="0 0 390 150.5">
  <defs>
    <filter id="Rectangle_248" x="0" y="0" width="390" height="79" filterUnits="userSpaceOnUse">
      <feOffset dy="-1" input="SourceAlpha"/>
      <feGaussianBlur stdDeviation="2.5" result="blur"/>
      <feFlood flood-opacity="0.051"/>
      <feComposite operator="in" in2="blur"/>
      <feComposite in="SourceGraphic"/>
    </filter>
    <linearGradient id="linear-gradient" x1="0.085" y1="0.111" x2="0.911" y2="0.918" gradientUnits="objectBoundingBox">
      <stop offset="0" stop-color="#fe8c00"/>
      <stop offset="1" stop-color="#fc4a1a"/>
    </linearGradient>
  </defs>
  <g id="Category_sidebar" data-name="Category sidebar" transform="translate(7.5 -661.5)">
    <g id="Rectangle_583" data-name="Rectangle 583" transform="translate(0 734)" fill="#fff" stroke="#fff" stroke-width="1">
      <rect width="375" height="78" stroke="none"/>
      <rect x="0.5" y="0.5" width="374" height="77" fill="none"/>
    </g>
    <g id="Group_1321" data-name="Group 1321" transform="translate(318 681)">
      <g id="Path_591" data-name="Path 591" transform="translate(0 -554.767)" fill="none">
        <path d="M19.833,633.6a9.4,9.4,0,0,1-6.333,2.5A10.167,10.167,0,0,1,7,633.6c-4.167,2.167-7,5-7,10.167H26.667C26.667,638.6,23.833,635.933,19.833,633.6Z" stroke="none"/>
        <path d="M 6.883193969726562 635.0263061523438 C 5.080211639404297 636.0369262695312 3.802289962768555 637.0820922851562 2.894550323486328 638.2821655273438 C 1.97038459777832 639.5039672851562 1.431146621704102 640.913818359375 1.25994873046875 642.5665893554688 L 25.40811920166016 642.5665893554688 C 25.2415714263916 640.9340209960938 24.71653366088867 639.5708618164062 23.7915096282959 638.3428344726562 C 22.93147468566895 637.2010498046875 21.72865867614746 636.1735229492188 19.9460563659668 635.0676879882812 C 18.04923629760742 636.53125 15.837890625 637.300048828125 13.50000953674316 637.300048828125 C 11.17312526702881 637.300048828125 8.95081901550293 636.5357666015625 6.883193969726562 635.0263061523438 M 7 633.5999755859375 C 8.833339691162109 635.1001586914062 11 636.1000366210938 13.50000953674316 636.1000366210938 C 16.00000953674316 636.1000366210938 18.16666984558105 635.1001586914062 19.83333969116211 633.5999755859375 C 23.83333969116211 635.9334106445312 26.66667938232422 638.5999755859375 26.66667938232422 643.7666015625 L 0 643.7666015625 C 0 638.5999755859375 2.833330154418945 635.7665405273438 7 633.5999755859375 Z" stroke="none" fill="#ff7600"/>
      </g>
      <g id="Path_592" data-name="Path 592" transform="translate(-218.167 0)" fill="none">
        <path d="M231.5,79.333a7.669,7.669,0,1,0-7.5-7.667A7.612,7.612,0,0,0,231.5,79.333Z" stroke="none"/>
        <path d="M 231.4999847412109 78.13331604003906 C 233.177734375 78.13331604003906 234.758544921875 77.45627593994141 235.9512176513672 76.22691345214844 C 237.1434173583984 74.99803924560547 237.7999877929688 73.37850952148438 237.7999877929688 71.66666412353516 C 237.7999877929688 69.95482635498047 237.1434173583984 68.33529663085938 235.9512023925781 67.10640716552734 C 234.758544921875 65.87703704833984 233.177734375 65.19999694824219 231.4999847412109 65.19999694824219 C 229.8222351074219 65.19999694824219 228.241455078125 65.87703704833984 227.0487976074219 67.10640716552734 C 225.8565979003906 68.33528900146484 225.2000274658203 69.95482635498047 225.2000274658203 71.66666412353516 C 225.2000274658203 73.41505432128906 225.874267578125 75.05218505859375 227.0985412597656 76.27646636962891 C 228.2785949707031 77.45652008056641 229.8828582763672 78.13331604003906 231.4999847412109 78.13331604003906 M 231.4999847412109 79.33331298828125 C 227.5 79.33331298828125 224.0000305175781 76 224.0000305175781 71.66666412353516 C 224.0000305175781 67.5 227.3333129882812 63.99999618530273 231.4999847412109 63.99999618530273 C 235.6666870117188 63.99999618530273 238.9999847412109 67.5 238.9999847412109 71.66666412353516 C 238.9999847412109 75.83333587646484 235.6666870117188 79.33331298828125 231.4999847412109 79.33331298828125 Z" stroke="none" fill="#ff7600"/>
      </g>
    </g>
    <g id="Group_1301" data-name="Group 1301" transform="translate(0.105 7)">
      <g id="Component_4_99" data-name="Component 4 – 99" transform="translate(102.495 738)">
        <g id="Rectangle_424" data-name="Rectangle 424" fill="none" stroke="#ff7600" stroke-width="1.2">
          <path d="M2.5,0H8.887a2.5,2.5,0,0,1,2.5,2.5v8.087a.8.8,0,0,1-.8.8H2.5A2.5,2.5,0,0,1,0,8.887V2.5A2.5,2.5,0,0,1,2.5,0Z" stroke="none"/>
          <path d="M2.5.6H8.887a1.9,1.9,0,0,1,1.9,1.9v8.087a.2.2,0,0,1-.2.2H2.5a1.9,1.9,0,0,1-1.9-1.9V2.5A1.9,1.9,0,0,1,2.5.6Z" fill="none"/>
        </g>
        <g id="Rectangle_425" data-name="Rectangle 425" transform="translate(13.608)" fill="none" stroke="#ff7600" stroke-width="1.2">
          <rect width="11.387" height="11.387" rx="5" stroke="none"/>
          <rect x="0.6" y="0.6" width="10.187" height="10.187" rx="4.4" fill="none"/>
        </g>
        <g id="Rectangle_426" data-name="Rectangle 426" transform="translate(13.608 13.613)" fill="none" stroke="#ff7600" stroke-width="1.2">
          <path d="M.8,0H8.887a2.5,2.5,0,0,1,2.5,2.5V8.887a2.5,2.5,0,0,1-2.5,2.5H2.5A2.5,2.5,0,0,1,0,8.887V.8A.8.8,0,0,1,.8,0Z" stroke="none"/>
          <path d="M.8.6H8.887a1.9,1.9,0,0,1,1.9,1.9V8.887a1.9,1.9,0,0,1-1.9,1.9H2.5a1.9,1.9,0,0,1-1.9-1.9V.8A.2.2,0,0,1,.8.6Z" fill="none"/>
        </g>
        <g id="Rectangle_427" data-name="Rectangle 427" transform="translate(0 13.613)" fill="none" stroke="#ff7600" stroke-width="1.2">
          <path d="M2.5,0h8.087a.8.8,0,0,1,.8.8V8.887a2.5,2.5,0,0,1-2.5,2.5H2.5A2.5,2.5,0,0,1,0,8.887V2.5A2.5,2.5,0,0,1,2.5,0Z" stroke="none"/>
          <path d="M2.5.6h8.087a.2.2,0,0,1,.2.2V8.887a1.9,1.9,0,0,1-1.9,1.9H2.5a1.9,1.9,0,0,1-1.9-1.9V2.5A1.9,1.9,0,0,1,2.5.6Z" fill="none"/>
        </g>
      </g>
    </g>
    <g id="Group_1313" data-name="Group 1313" transform="translate(-26.6 9)">
      <g id="Rectangle_432" data-name="Rectangle 432" transform="translate(201 736)" fill="#fff" stroke="#ff7600" stroke-width="1.2">
        <path d="M12.5,0h0A12.5,12.5,0,0,1,25,12.5v0A12.5,12.5,0,0,1,12.5,25H.833A.833.833,0,0,1,0,24.167V12.5A12.5,12.5,0,0,1,12.5,0Z" stroke="none"/>
        <path d="M12.5.6h0A11.9,11.9,0,0,1,24.4,12.5v0A11.9,11.9,0,0,1,12.5,24.4H.931A.331.331,0,0,1,.6,24.069V12.5A11.9,11.9,0,0,1,12.5.6Z" fill="none"/>
      </g>
      <line id="Line_160" data-name="Line 160" x2="11.364" transform="translate(207.25 744.523)" fill="none" stroke="#ff7600" stroke-linecap="round" stroke-width="1.2"/>
      <line id="Line_161" data-name="Line 161" x2="11.364" transform="translate(207.25 749.068)" fill="none" stroke="#ff7600" stroke-linecap="round" stroke-width="1.2"/>
      <line id="Line_162" data-name="Line 162" x2="5.682" transform="translate(207.25 753.898)" fill="none" stroke="#ff7600" stroke-linecap="round" stroke-width="1.2"/>
    </g>
    <g id="Group_2944" data-name="Group 2944" transform="translate(19.17 -12.332)">
      <path id="Path_1091" data-name="Path 1091" d="M0-.029H15.6a2.319,2.319,0,0,1,1.522.466,1.489,1.489,0,0,1,.3,1.328l-1.2,6.614a2.1,2.1,0,0,1-.786,1.39,4.6,4.6,0,0,1-1.993.525l-12.367.944" transform="translate(234.267 761.473)" fill="#ff7600" stroke="#ff7600" stroke-linecap="round" stroke-width="1.2"/>
      <path id="Path_1092" data-name="Path 1092" d="M-7.469-5.547l1.239.574a1.616,1.616,0,0,1,.671.553,1.719,1.719,0,0,1,.3.895l.17,3.089.7,11.3a3.445,3.445,0,0,0,.655,1.925,3.107,3.107,0,0,0,1.757.648l16.129-.006" transform="translate(236.5 763.5)" fill="none" stroke="#ff7600" stroke-linecap="round" stroke-width="1.2"/>
      <g id="Ellipse_197" data-name="Ellipse 197" transform="translate(232.413 778.78)" fill="#ff7600" stroke="#ff7600" stroke-width="1.2">
        <circle cx="1.776" cy="1.776" r="1.776" stroke="none"/>
        <circle cx="1.776" cy="1.776" r="1.176" fill="none"/>
      </g>
      <circle id="Ellipse_202" data-name="Ellipse 202" cx="1.776" cy="1.776" r="1.776" transform="translate(246.112 778.78)" fill="#ff7600"/>
    </g>
    <g id="Group_2946" data-name="Group 2946" transform="translate(29.371 743.523)">
      <path id="Path_82" data-name="Path 82" d="M28.43,27.32V13.328L16.215,4,4,13.328V27.32h7.329V16.826H21.1V27.32Z" transform="translate(-1.572 -1.683)" fill="none" stroke="#ff7600" stroke-linejoin="round" stroke-width="1.5"/>
      <path id="Path_83" data-name="Path 83" d="M24,39.794V34" transform="translate(-9.355 -14.157)" fill="none" stroke="#ff7600" stroke-linecap="round" stroke-linejoin="round" stroke-width="1.5"/>
    </g>
    <g id="Group_766" data-name="Group 766" transform="translate(0 2)">
      <g transform="matrix(1, 0, 0, 1, -7.5, 659.5)" filter="url(#Rectangle_248)">
        <path id="Rectangle_248-2" data-name="Rectangle 248" d="M13,0H362a13,13,0,0,1,13,13V64a0,0,0,0,1,0,0H0a0,0,0,0,1,0,0V13A13,13,0,0,1,13,0Z" transform="translate(7.5 8.5)" fill="#fff"/>
      </g>
      <line id="Line_84" data-name="Line 84" x2="375" transform="translate(0 732)" fill="none" stroke="#b5b5b5" stroke-width="0.34"/>
      <g id="Group_765" data-name="Group 765">
        <g id="Ellipse_52" data-name="Ellipse 52" transform="translate(18 689)" fill="#fff" stroke="#cecece" stroke-width="1">
          <circle cx="11" cy="11" r="11" stroke="none"/>
          <circle cx="11" cy="11" r="10.5" fill="none"/>
        </g>
        <text id="Выбрать_все" data-name="Выбрать все" transform="translate(45 705.5)" fill="#8b8b8b" stroke="rgba(255,255,255,0)" stroke-width="1" font-size="13" font-family="SegoeUI, Segoe UI" letter-spacing="-0.021em"><tspan x="0" y="0">Выбрать все</tspan></text>
        <text id="Всего:" transform="translate(190 705.5)" fill="#333" stroke="rgba(255,255,255,0)" stroke-width="1" font-size="13" font-family="SegoeUI, Segoe UI"><tspan x="0" y="0">Всего:</tspan></text>
        <text id="_" data-name="¥" transform="translate(233.5 706)" fill="#ff7600" stroke="rgba(255,255,255,0)" stroke-width="1" font-size="13" font-family="SegoeUI, Segoe UI" letter-spacing="0.08em"><tspan x="0" y="0">¥</tspan></text>
        <text id="_0" data-name="0" transform="translate(243.5 706.5)" fill="#ff7600" stroke="rgba(255,255,255,0)" stroke-width="1" font-size="22" font-family="SegoeUI, Segoe UI" letter-spacing="0.08em"><tspan x="0" y="0">0</tspan></text>
        <g id="Group_764" data-name="Group 764">
          <rect id="Rectangle_249" data-name="Rectangle 249" width="100" height="40" rx="20" transform="translate(263 680)" fill="url(#linear-gradient)"/>
          <text id="Оплатить" transform="translate(279 705)" fill="#fff" stroke="rgba(255,255,255,0)" stroke-width="1" font-size="16" font-family="SegoeUI, Segoe UI"><tspan x="0" y="0">Оплатить</tspan></text>
        </g>
      </g>
    </g>
  </g>
</svg>
