<svg xmlns="http://www.w3.org/2000/svg" width="23.322" height="20.214" viewBox="0 0 23.322 20.214">
  <g id="Path_334" data-name="Path 334" transform="translate(-2.7 -5.7)" fill="none" stroke-linejoin="round" fill-rule="evenodd">
    <path d="M24.722,24.529q-3.8-4.641-6.753-5.267a15.13,15.13,0,0,0-5.619-.189v5.541L4,15.571,12.35,7v5.267a11.48,11.48,0,0,1,8.388,3.54A14.037,14.037,0,0,1,24.722,24.529Z" stroke="none"/>
    <path d="M 12.34990978240967 24.61342239379883 L 12.34990978240967 19.07193374633789 C 14.12860298156738 18.78069496154785 16.00152969360352 18.8437328338623 17.96868896484375 19.26112365722656 C 19.93585014343262 19.67850303649902 22.18684959411621 21.43430328369141 24.7216796875 24.52852249145508 C 24.36873054504395 21.04784393310547 23.04079055786133 18.14060401916504 20.73768043518066 15.80671310424805 C 18.43461990356445 13.47283267974854 15.63868999481201 12.29293346405029 12.34990978240967 12.26693344116211 L 12.34990978240967 7.000003337860107 L 3.999999761581421 15.57116317749023 L 12.34990978240967 24.61342239379883 M 12.35019207000732 25.91347503662109 C 11.99427509307861 25.91347503662109 11.64587116241455 25.7672233581543 11.39482975006104 25.4953727722168 L 3.044919729232788 16.4531135559082 C 2.575949907302856 15.9452428817749 2.586449861526489 15.15917301177979 3.068819761276245 14.66402339935303 L 11.41872978210449 6.092863082885742 C 11.78779888153076 5.714013576507568 12.34958648681641 5.596530914306641 12.83953952789307 5.795732975006104 C 13.32948970794678 5.994933128356934 13.64990997314453 6.471103191375732 13.64990997314453 7.000003337860107 L 13.64990997314453 11.03352355957031 C 16.73579597473145 11.33208560943604 19.42642021179199 12.62708950042725 21.66300964355469 14.89360332489014 C 24.1688289642334 17.43291282653809 25.63306999206543 20.63045310974121 26.01504898071289 24.39737319946289 C 26.07291030883789 24.96796226501465 25.75001907348633 25.50906372070312 25.22036933898926 25.72906303405762 C 24.69072914123535 25.94907569885254 24.07948684692383 25.79601287841797 23.71603965759277 25.35235404968262 C 20.81254959106445 21.80810356140137 18.84127998352051 20.77520370483398 17.6988697052002 20.53281402587891 C 16.63418960571289 20.30691337585449 15.58850955963135 20.19237327575684 14.59086990356445 20.19237327575684 C 14.27539253234863 20.19237327575684 13.96110248565674 20.20383071899414 13.64990997314453 20.22659492492676 L 13.64990997314453 24.61342239379883 C 13.64990997314453 25.14865303039551 13.32186985015869 25.62918281555176 12.82341003417969 25.82412338256836 C 12.66955471038818 25.8842945098877 12.50909328460693 25.91347503662109 12.35019207000732 25.91347503662109 Z" stroke="none" fill="#111"/>
  </g>
</svg>
