<svg xmlns="http://www.w3.org/2000/svg" width="21.719" height="21.719" viewBox="0 0 21.719 21.719">
  <g id="Group_858" data-name="Group 858" transform="translate(-1.983 -2.055)">
    <path id="Path_356" data-name="Path 356" d="M24.819,9.2,19.615,4,17.663,5.952,15.711,7.9l-3.9,3.9-3.9,3.9L5.952,17.663,4,19.615l5.2,5.2Z" transform="translate(-1.567 -1.495)" fill="none" stroke="#eb4b3a" stroke-linecap="round" stroke-linejoin="round" stroke-width="0.9"/>
    <path id="Path_357" data-name="Path 357" d="M19.461,7.75,7.75,19.461" transform="translate(-3.365 -3.293)" fill="none" stroke="#eb4b3a" stroke-linecap="round" stroke-linejoin="round" stroke-width="0.9"/>
    <path id="Path_358" data-name="Path 358" d="M9,29l2.082,2.082" transform="translate(-3.964 -13.483)" fill="none" stroke="#eb4b3a" stroke-linecap="round" stroke-linejoin="round" stroke-width="0.9"/>
    <path id="Path_359" data-name="Path 359" d="M14,24l3.123,3.123" transform="translate(-6.362 -11.085)" fill="none" stroke="#eb4b3a" stroke-linecap="round" stroke-linejoin="round" stroke-width="0.9"/>
    <path id="Path_360" data-name="Path 360" d="M19,19l2.082,2.082" transform="translate(-8.76 -8.688)" fill="none" stroke="#eb4b3a" stroke-linecap="round" stroke-linejoin="round" stroke-width="0.9"/>
    <path id="Path_361" data-name="Path 361" d="M24,14l3.123,3.123" transform="translate(-11.157 -6.29)" fill="none" stroke="#eb4b3a" stroke-linecap="round" stroke-linejoin="round" stroke-width="0.9"/>
    <path id="Path_362" data-name="Path 362" d="M29,9l2.082,2.082" transform="translate(-13.555 -3.893)" fill="none" stroke="#eb4b3a" stroke-linecap="round" stroke-linejoin="round" stroke-width="0.9"/>
  </g>
</svg>
