<svg xmlns="http://www.w3.org/2000/svg" width="30.967" height="30.987" viewBox="0 0 30.967 30.987">
  <g id="cart" transform="translate(-73.575 -87.039)">
    <path id="Path_1151" data-name="Path 1151" d="M101.913,110.848H84.646a2.154,2.154,0,0,1-2.149-1.832L79.58,90.3a3.829,3.829,0,0,0-3.8-3.261H74.7a1.124,1.124,0,1,0,0,2.248h1.079a1.594,1.594,0,0,1,1.583,1.354l2.922,18.715a4.393,4.393,0,0,0,4.363,3.739h17.268a1.124,1.124,0,1,0,0-2.248Z" transform="translate(0 0)" fill="#444"/>
    <path id="Path_1152" data-name="Path 1152" d="M343.645,184.968a3.258,3.258,0,0,0-2.5-1.16H323.684a1.124,1.124,0,0,0,0,2.248h17.47a1.019,1.019,0,0,1,1.006,1.189l-1.617,9.443a1.017,1.017,0,0,1-.937.847l-13.963.877a1.124,1.124,0,0,0,.069,2.248h.073l13.961-.877a3.256,3.256,0,0,0,3.016-2.714l1.607-9.443a3.261,3.261,0,0,0-.725-2.658Z" transform="translate(-239.876 -93.229)" fill="#444"/>
    <path id="Path_1153" data-name="Path 1153" d="M302.486,843.516m-1.686,0a1.686,1.686,0,1,0,1.686-1.686A1.686,1.686,0,0,0,300.8,843.516Z" transform="translate(-218.912 -727.176)" fill="#444"/>
    <path id="Path_1154" data-name="Path 1154" d="M739.478,841.83a1.686,1.686,0,1,0,1.686,1.686A1.686,1.686,0,0,0,739.478,841.83Z" transform="translate(-639.916 -727.176)" fill="#444"/>
  </g>
</svg>
