<svg xmlns="http://www.w3.org/2000/svg" width="18.189" height="18.103" viewBox="0 0 18.189 18.103">
  <g id="Group_2983" data-name="Group 2983" transform="translate(-228.306 -757.228)">
    <path id="Path_1091" data-name="Path 1091" d="M0-.029H11.838A1.86,1.86,0,0,1,12.993.3a.991.991,0,0,1,.225.936L12.308,5.9a1.447,1.447,0,0,1-.6.98,3.708,3.708,0,0,1-1.512.37L.817,7.914" transform="translate(232.673 760.443)" fill="none" stroke="#000" stroke-linecap="round" stroke-width="1.1"/>
    <path id="Path_1092" data-name="Path 1092" d="M-7.469-5.547l.921.4a1.2,1.2,0,0,1,.5.39,1.168,1.168,0,0,1,.226.631L-5.7-1.944l.523,7.97a2.342,2.342,0,0,0,.487,1.357A2.393,2.393,0,0,0-3.38,7.84l11.99,0" transform="translate(236.5 763.5)" fill="none" stroke="#000" stroke-linecap="round" stroke-width="1.1"/>
    <circle id="Ellipse_197" data-name="Ellipse 197" cx="1.347" cy="1.347" r="1.347" transform="translate(231.597 772.637)"/>
    <circle id="Ellipse_202" data-name="Ellipse 202" cx="1.347" cy="1.347" r="1.347" transform="translate(241.66 772.637)"/>
  </g>
</svg>
