<svg xmlns="http://www.w3.org/2000/svg" width="24.124" height="25.175" viewBox="0 0 24.124 25.175">
  <g id="Group_2944" data-name="Group 2944" transform="translate(-228.235 -757.156)">
    <path id="Path_1091" data-name="Path 1091" d="M0-.029H15.6a2.319,2.319,0,0,1,1.522.466,1.489,1.489,0,0,1,.3,1.328l-1.2,6.614a2.1,2.1,0,0,1-.786,1.39,4.6,4.6,0,0,1-1.993.525l-12.367.944" transform="translate(234.267 761.473)" fill="#ff7600" stroke="#ff7600" stroke-linecap="round" stroke-width="1.2"/>
    <path id="Path_1092" data-name="Path 1092" d="M-7.469-5.547l1.239.574a1.616,1.616,0,0,1,.671.553,1.719,1.719,0,0,1,.3.895l.17,3.089.7,11.3a3.445,3.445,0,0,0,.655,1.925,3.107,3.107,0,0,0,1.757.648l16.129-.006" transform="translate(236.5 763.5)" fill="none" stroke="#ff7600" stroke-linecap="round" stroke-width="1.2"/>
    <g id="Ellipse_197" data-name="Ellipse 197" transform="translate(232.413 778.78)" fill="#ff7600" stroke="#ff7600" stroke-width="1.2">
      <circle cx="1.776" cy="1.776" r="1.776" stroke="none"/>
      <circle cx="1.776" cy="1.776" r="1.176" fill="none"/>
    </g>
    <circle id="Ellipse_202" data-name="Ellipse 202" cx="1.776" cy="1.776" r="1.776" transform="translate(246.112 778.78)" fill="#ff7600"/>
  </g>
</svg>
