<svg xmlns="http://www.w3.org/2000/svg" width="24.741" height="24.741" viewBox="0 0 24.741 24.741">
  <g id="chatbubble-ellipses-outline" transform="translate(-47.349 -47.35)">
    <path id="Path_1148" data-name="Path 1148" d="M50.224,66.708A1.274,1.274,0,0,0,50,65.87a2.4,2.4,0,0,0-.143-.214A11.259,11.259,0,0,1,48,59.458,11.746,11.746,0,0,1,71.19,57.12a11.213,11.213,0,0,1,.25,2.346A11.49,11.49,0,0,1,59.912,71.014a13.794,13.794,0,0,1-3.182-.472c-.759-.212-1.517-.494-1.712-.57a1.754,1.754,0,0,0-.627-.117,1.729,1.729,0,0,0-.681.137l-3.823,1.379a.9.9,0,0,1-.263.069.541.541,0,0,1-.54-.549.893.893,0,0,1,.034-.185Z" transform="translate(0 0)" fill="none" stroke="#000" stroke-linecap="round" stroke-miterlimit="10" stroke-width="1.3"/>
    <circle id="Ellipse_232" data-name="Ellipse 232" cx="1.683" cy="1.683" r="1.683" transform="translate(53.168 58.221)"/>
    <circle id="Ellipse_233" data-name="Ellipse 233" cx="1.683" cy="1.683" r="1.683" transform="translate(58.218 58.221)"/>
    <circle id="Ellipse_234" data-name="Ellipse 234" cx="1.683" cy="1.683" r="1.683" transform="translate(63.268 58.221)"/>
  </g>
</svg>
