<svg xmlns="http://www.w3.org/2000/svg" width="14.759" height="14.922" viewBox="0 0 14.759 14.922">
  <g id="Group_2782" data-name="Group 2782" transform="translate(9.756 -5.689) rotate(90)">
    <g id="Rectangle_424" data-name="Rectangle 424" transform="translate(5.689 9.756) rotate(-90)" fill="none" stroke="#262626" stroke-width="0.8">
      <path d="M2.5,0h3A1.5,1.5,0,0,1,7,1.5v4A1.5,1.5,0,0,1,5.5,7h-4A1.5,1.5,0,0,1,0,5.5v-3A2.5,2.5,0,0,1,2.5,0Z" stroke="none"/>
      <path d="M2.5.4h3A1.1,1.1,0,0,1,6.6,1.5v4A1.1,1.1,0,0,1,5.5,6.6h-4A1.1,1.1,0,0,1,.4,5.5v-3A2.1,2.1,0,0,1,2.5.4Z" fill="none"/>
    </g>
    <g id="Rectangle_425" data-name="Rectangle 425" transform="translate(5.689 1.997) rotate(-90)" fill="none" stroke="#262626" stroke-width="0.8">
      <path d="M1.5,0h3A2.5,2.5,0,0,1,7,2.5v3A1.5,1.5,0,0,1,5.5,7h-4A1.5,1.5,0,0,1,0,5.5v-4A1.5,1.5,0,0,1,1.5,0Z" stroke="none"/>
      <path d="M1.5.4h3A2.1,2.1,0,0,1,6.6,2.5v3A1.1,1.1,0,0,1,5.5,6.6h-4A1.1,1.1,0,0,1,.4,5.5v-4A1.1,1.1,0,0,1,1.5.4Z" fill="none"/>
    </g>
    <g id="Rectangle_426" data-name="Rectangle 426" transform="translate(13.61 1.997) rotate(-90)" fill="none" stroke="#262626" stroke-width="0.6" stroke-dasharray="0.2 0.2">
      <rect width="7" height="7" rx="3.5" stroke="none"/>
      <rect x="0.3" y="0.3" width="6.4" height="6.4" rx="3.2" fill="none"/>
    </g>
    <g id="Rectangle_427" data-name="Rectangle 427" transform="translate(13.61 9.756) rotate(-90)" fill="none" stroke="#262626" stroke-width="0.8">
      <path d="M1.5,0h4A1.5,1.5,0,0,1,7,1.5v4A1.5,1.5,0,0,1,5.5,7h-3A2.5,2.5,0,0,1,0,4.5v-3A1.5,1.5,0,0,1,1.5,0Z" stroke="none"/>
      <path d="M1.5.4h4A1.1,1.1,0,0,1,6.6,1.5v4A1.1,1.1,0,0,1,5.5,6.6h-3A2.1,2.1,0,0,1,.4,4.5v-3A1.1,1.1,0,0,1,1.5.4Z" fill="none"/>
    </g>
  </g>
</svg>
