<svg xmlns="http://www.w3.org/2000/svg" width="9" height="9" viewBox="0 0 9 9">
  <g id="Group_2778" data-name="Group 2778" transform="translate(-3.5 -3.5)">
    <g id="Path_1052" data-name="Path 1052" transform="translate(0 0)" stroke-linejoin="round">
      <path d="M 7.999999523162842 12.27950954437256 L 7.888199329376221 12.22360992431641 L 3.8881995677948 10.22360992431641 L 3.749999523162842 10.15450954437256 L 3.749999523162842 10 L 3.749999523162842 5.999999523162842 L 3.749999523162842 5.845489501953125 L 3.8881995677948 5.776389598846436 L 7.888199329376221 3.776389598846436 L 7.999999523162842 3.720489501953125 L 8.111799240112305 3.776389598846436 L 12.1117992401123 5.776389598846436 L 12.25 5.845489501953125 L 12.25 5.999999523162842 L 12.25 10 L 12.25 10.15450954437256 L 12.1117992401123 10.22360992431641 L 8.111799240112305 12.22360992431641 L 7.999999523162842 12.27950954437256 Z" stroke="none"/>
      <path d="M 7.999999523162842 3.999999046325684 L 3.999999046325684 5.999999046325684 L 3.999999046325684 10 L 7.999999523162842 12 L 12 10 L 12 5.999999046325684 L 7.999999523162842 3.999999046325684 M 7.999999523162842 3.499997138977051 C 8.07661247253418 3.499997138977051 8.153224945068359 3.517594337463379 8.223609924316406 3.552789688110352 L 12.22360992431641 5.552789688110352 C 12.39299964904785 5.637479782104492 12.5 5.810609817504883 12.5 5.999999046325684 L 12.5 10 C 12.5 10.18939018249512 12.39299964904785 10.36252021789551 12.22360992431641 10.44720935821533 L 8.223609924316406 12.44720935821533 C 8.082839965820312 12.51759910583496 7.917158126831055 12.51759910583496 7.776389122009277 12.44720935821533 L 3.776389122009277 10.44720935821533 C 3.606999397277832 10.36252021789551 3.499999046325684 10.18939018249512 3.499999046325684 10 L 3.499999046325684 5.999999046325684 C 3.499999046325684 5.810609817504883 3.606999397277832 5.637479782104492 3.776389122009277 5.552789688110352 L 7.776389122009277 3.552789688110352 C 7.846774101257324 3.517594337463379 7.923386573791504 3.499997138977051 7.999999523162842 3.499997138977051 Z" stroke="none" fill="#fff"/>
    </g>
    <path id="Path_1053" data-name="Path 1053" d="M4,14l4,2" transform="translate(0 -8)" stroke="#fff" stroke-linejoin="round" stroke-width="0.5"/>
    <path id="Path_1054" data-name="Path 1054" d="M24,28V24" transform="translate(-16 -16)" stroke="#fff" stroke-linejoin="round" stroke-width="0.5"/>
    <path id="Path_1055" data-name="Path 1055" d="M28,14l-4,2" transform="translate(-16 -8)" stroke="#fff" stroke-linejoin="round" stroke-width="0.5"/>
  </g>
</svg>
