<svg xmlns="http://www.w3.org/2000/svg" width="12.895" height="12.217" viewBox="0 0 12.895 12.217">
  <g id="Group_2749" data-name="Group 2749" transform="translate(0.599 0.599)">
    <g id="Group_267" data-name="Group 267" transform="translate(0.001 0.001)">
      <g id="Path_67" data-name="Path 67" transform="translate(-14.526 -18.316)" fill="#d9d9d9" stroke-linejoin="round">
        <path d="M 16.36167144775391 29.8847770690918 L 16.46887016296387 29.28023719787598 L 17.14407157897949 25.47253227233887 L 14.3175802230835 22.73240661621094 L 13.87881088256836 22.30703735351562 L 14.4837007522583 22.22005653381348 L 18.38711738586426 21.65882110595703 L 20.10440063476562 18.18291664123535 L 20.37162017822266 17.64203643798828 L 20.64163017272949 18.18152809143066 L 22.38201713562012 21.65882110595703 L 26.26403045654297 22.22009658813477 L 26.86758995056152 22.30735778808594 L 26.43010139465332 22.73221778869629 L 23.60836601257324 25.4725227355957 L 24.27864074707031 29.28061676025391 L 24.38489151000977 29.88424682617188 L 23.8430004119873 29.59784698486328 L 20.37337493896484 27.76407241821289 L 16.90446090698242 29.59783744812012 L 16.36167144775391 29.8847770690918 Z" stroke="none"/>
        <path d="M 20.37336158752441 18.31579780578613 L 18.58612060546875 21.93329811096191 L 14.52640151977539 22.51700782775879 L 17.46728134155273 25.36802673339844 L 16.76426124572754 29.33261680603027 L 20.37336158752441 27.42474746704102 L 23.98318099975586 29.33261680603027 L 23.28536033630371 25.36802673339844 L 26.22109985351562 22.51700782775879 L 22.18391990661621 21.93329811096191 L 20.37336158752441 18.31579780578613 M 20.37337303161621 17.71579551696777 C 20.60050201416016 17.71579551696777 20.8082103729248 17.84406661987305 20.90991020202637 18.04725646972656 L 22.58012008666992 21.38433647155762 L 26.30696105957031 21.92317771911621 C 26.53327178955078 21.95590782165527 26.7213020324707 22.11441802978516 26.79183959960938 22.33192825317383 C 26.86238098144531 22.54943656921387 26.80315017700195 22.78812789916992 26.63911056518555 22.94743728637695 L 23.93137550354004 25.5770320892334 L 24.57410049438477 29.22860717773438 C 24.61381149291992 29.45423698425293 24.52157020568848 29.68277740478516 24.33638000488281 29.81763648986816 C 24.15119361877441 29.95250701904297 23.90536499023438 29.97014236450195 23.70281982421875 29.86308670043945 L 20.37338447570801 28.10340690612793 L 17.04467010498047 29.86305809020996 C 16.84199905395508 29.97019386291504 16.59599685668945 29.95248603820801 16.41077041625977 29.81742668151855 C 16.22554016113281 29.68237686157227 16.13345146179199 29.45357704162598 16.17348098754883 29.22785758972168 L 16.82086372375488 25.5770206451416 L 14.1087703704834 22.94779777526855 C 13.94445991516113 22.78851699829102 13.88507080078125 22.54963684082031 13.95565032958984 22.33194732666016 C 14.02622985839844 22.11426734924316 14.21450042724609 21.95568656921387 14.44101142883301 21.92311668395996 L 18.18809127807617 21.38435935974121 L 19.83543014526367 18.05002784729004 C 19.9365291595459 17.84539604187012 20.14553833007812 17.71596908569336 20.37337303161621 17.71579551696777 Z" stroke="none" fill="#d9d9d9"/>
      </g>
    </g>
    <g id="Group_273" data-name="Group 273" transform="translate(0.575 0.542)">
      <g id="Path_67-2" data-name="Path 67" transform="translate(-14.526 -18.316)" fill="#d9d9d9" stroke-linejoin="round">
        <path d="M 16.14188385009766 28.80273818969727 L 16.24908447265625 28.19819831848145 L 16.85523414611816 24.77989387512207 L 14.3175745010376 22.31977844238281 L 13.87880420684814 21.89440727233887 L 14.48369407653809 21.80742835998535 L 17.98837852478027 21.30351257324219 L 19.53011512756348 18.18291854858398 L 19.79734420776367 17.64203834533691 L 20.06735420227051 18.18152809143066 L 21.62992095947266 21.30351257324219 L 25.11542510986328 21.80746841430664 L 25.71898460388184 21.89472770690918 L 25.281494140625 22.31958770751953 L 22.74809074401855 24.77988052368164 L 23.34983444213867 28.19856834411621 L 23.45608329772949 28.80220794677734 L 22.91419410705566 28.51580810546875 L 19.79909896850586 26.86942291259766 L 16.68467330932617 28.51579856872559 L 16.14188385009766 28.80273818969727 Z" stroke="none"/>
        <path d="M 19.7990837097168 18.31579780578613 L 18.1873950958252 21.57798767089844 L 14.52639389038086 22.10437774658203 L 17.17844390869141 24.67538833618164 L 16.54447364807129 28.25057792663574 L 19.7990837097168 26.53009796142578 L 23.05437469482422 28.25057792663574 L 22.42507362365723 24.67538833618164 L 25.07249450683594 22.10437774658203 L 21.43182373046875 21.57798767089844 L 19.7990837097168 18.31579780578613 M 19.79909706115723 17.71579551696777 C 20.02622604370117 17.71579551696777 20.23393440246582 17.84405708312988 20.33563423156738 18.0472583770752 L 21.82802391052246 21.02902793884277 L 25.15835380554199 21.51054763793945 C 25.38466453552246 21.54327774047852 25.57270431518555 21.7017879486084 25.64323425292969 21.91929817199707 C 25.71377372741699 22.13680839538574 25.65454483032227 22.37550735473633 25.49050521850586 22.5348072052002 L 23.07109069824219 24.88439178466797 L 23.64529418945312 28.14656829833984 C 23.68500518798828 28.37218856811523 23.5927734375 28.60073852539062 23.40757369995117 28.73559761047363 C 23.22238922119141 28.87045860290527 22.97655868530273 28.88810157775879 22.77401351928711 28.78104782104492 L 19.79911041259766 27.2087574005127 L 16.82488441467285 28.7810173034668 C 16.62221527099609 28.88815689086914 16.37621307373047 28.87044906616211 16.19098472595215 28.73538780212402 C 16.0057544708252 28.60033798217773 15.91366386413574 28.37153816223145 15.95369338989258 28.14581871032715 L 16.53202629089355 24.88439178466797 L 14.1087646484375 22.53517723083496 C 13.94445419311523 22.37588691711426 13.88506507873535 22.13700866699219 13.95564460754395 21.9193172454834 C 14.02622413635254 21.70163726806641 14.2144947052002 21.54305839538574 14.44100379943848 21.51048851013184 L 17.78936386108398 21.02905082702637 L 19.26115417480469 18.05002784729004 C 19.36225128173828 17.84539604187012 19.57082366943359 17.7160530090332 19.79909706115723 17.71579551696777 Z" stroke="none" fill="#d9d9d9"/>
      </g>
    </g>
  </g>
</svg>
