<svg xmlns="http://www.w3.org/2000/svg" width="19.052" height="17.287" viewBox="0 0 19.052 17.287">
  <path id="smile" d="M82.949,121.029a.967.967,0,0,0-.647-.242,1.07,1.07,0,0,0-.8.355,10.157,10.157,0,0,1-15.474,0,1.008,1.008,0,0,0-.766-.36.976.976,0,0,0-.651.25,1,1,0,0,0-.361.7.967.967,0,0,0,.248.716,12.184,12.184,0,0,0,18.557.027A1.03,1.03,0,0,0,82.949,121.029ZM79.6,115.538a1.739,1.739,0,0,0,1.716-1.757v-2.565a1.717,1.717,0,1,0-3.432,0v2.565A1.76,1.76,0,0,0,79.6,115.538Zm-11.647,0a1.76,1.76,0,0,0,1.716-1.757v-2.565a1.717,1.717,0,1,0-3.433,0v2.565A1.76,1.76,0,0,0,67.955,115.538Z" transform="translate(-64.252 -109.459)" fill="#272536"/>
</svg>
