<svg xmlns="http://www.w3.org/2000/svg" width="21.998" height="22" viewBox="0 0 21.998 22">
  <g id="Group_2961" data-name="Group 2961" transform="translate(7.702 5.181)">
    <g id="Path_615" data-name="Path 615" transform="translate(-65.002 -62.481)" fill="none">
      <path d="M68.3,79.3a10.965,10.965,0,1,1,4.281-.866A10.937,10.937,0,0,1,68.3,79.3Zm0-21.156A10.155,10.155,0,1,0,78.453,68.3,10.165,10.165,0,0,0,68.3,58.144Z" stroke="none"/>
      <path d="M 68.29880523681641 79.30000305175781 C 66.8135986328125 79.30000305175781 65.37433624267578 79.00974273681641 64.01731872558594 78.43645477294922 C 62.70626831054688 77.88253021240234 61.53067779541016 77.08912658691406 60.52199935913086 76.07802581787109 C 59.51330947875977 75.06690979003906 58.71748733520508 73.89131927490234 58.16355895996094 72.58027648925781 C 57.59026718139648 71.2232666015625 57.30000686645508 69.78401947021484 57.30000686645508 68.29880523681641 C 57.30000686645508 66.81360626220703 57.59026718139648 65.37433624267578 58.16355895996094 64.01732635498047 C 58.71748733520508 62.70627212524414 59.51088714599609 61.53068161010742 60.52199935913086 60.52199172973633 C 61.53309631347656 59.51331329345703 62.70626831054688 58.71748352050781 64.01731872558594 58.16355133056641 C 65.37433624267578 57.59027481079102 66.8135986328125 57.30000305175781 68.29880523681641 57.30000305175781 C 69.78401947021484 57.30000305175781 71.22325897216797 57.59027481079102 72.58027648925781 58.16355133056641 C 73.89132690429688 58.71748352050781 75.06690979003906 59.51089477539062 76.07559967041016 60.52199172973633 C 77.08427429199219 61.53310394287109 77.88010406494141 62.70627212524414 78.43404388427734 64.01732635498047 C 79.00732421875 65.37433624267578 79.29759979248047 66.81360626220703 79.29759979248047 68.29880523681641 C 79.29759979248047 69.78401947021484 79.00732421875 71.2232666015625 78.43404388427734 72.58027648925781 C 77.88010406494141 73.89131927490234 77.08670806884766 75.06690979003906 76.07559967041016 76.07559967041016 C 75.06449890136719 77.08428192138672 73.89132690429688 77.88011169433594 72.58027648925781 78.43404388427734 C 71.22325897216797 79.00732421875 69.78401947021484 79.30000305175781 68.29880523681641 79.30000305175781 Z M 68.29880523681641 58.14420318603516 C 62.69901657104492 58.14420318603516 58.14420700073242 62.69901275634766 58.14420700073242 68.29880523681641 C 58.14420700073242 73.89858245849609 62.69901657104492 78.45339202880859 68.29880523681641 78.45339202880859 C 73.89859008789062 78.45339202880859 78.45338439941406 73.89858245849609 78.45338439941406 68.29880523681641 C 78.45338439941406 62.69901275634766 73.89859008789062 58.14420318603516 68.29880523681641 58.14420318603516 Z" stroke="none" fill="#eb4b3a"/>
    </g>
    <path id="Path_1095" data-name="Path 1095" d="M.217,1.85S.329-2.372,4.355-1.684C6.9-1.248,7.417.97,6.55,2.4,5.411,4.147,4.533,4.058,3.767,5.258A3.089,3.089,0,0,0,3.3,7.567" transform="translate(-0.217 1.76)" fill="none" stroke="#eb4b3a" stroke-linecap="round" stroke-width="0.9"/>
    <circle id="Ellipse_208" data-name="Ellipse 208" cx="0.772" cy="0.772" r="0.772" transform="translate(2.461 10.936)" fill="#eb4b3a"/>
  </g>
</svg>
