<svg xmlns="http://www.w3.org/2000/svg" width="22.152" height="22.152" viewBox="0 0 22.152 22.152">
  <path id="question" d="M10,16.614a.923.923,0,1,0,.923-.923.923.923,0,0,0-.923.923Zm.923-2.28h-.074a.775.775,0,0,1-.7-.849A5,5,0,0,1,12,10.679c1.394-1.394,1.421-1.846,1.44-2.308a2,2,0,0,0-.572-1.5,2.428,2.428,0,0,0-1.791-.748A2.326,2.326,0,0,0,8.75,8.455a.78.78,0,1,1-1.56,0,3.877,3.877,0,0,1,3.886-3.84,4,4,0,0,1,2.9,1.237,3.554,3.554,0,0,1,.978,2.6c-.055,1.006-.36,1.791-1.9,3.323-.775.775-1.274,1.366-1.32,1.846a.775.775,0,0,1-.766.738Zm6.84,3.443A9.516,9.516,0,1,1,7.384,2.308a9.516,9.516,0,0,1,10.421,15.5ZM11.076,0A11.076,11.076,0,1,0,22.152,11.076,11.076,11.076,0,0,0,11.076,0Z" fill="#5e5c5c"/>
</svg>
