<svg xmlns="http://www.w3.org/2000/svg" width="22.784" height="21.157" viewBox="0 0 22.784 21.157">
  <path id="change" d="M34.874,76.761h.077a9.158,9.158,0,0,1,17.676-.033l.015,0a.579.579,0,0,0,.522.35.6.6,0,0,0,.579-.609.623.623,0,0,0-.029-.176h0a.012.012,0,0,1,0-.008.419.419,0,0,0-.018-.059,10.318,10.318,0,0,0-19.871.238l-1.463-.423,1.164,3.54,2.964-2.353-1.611-.462Zm20.268,6.061-1.164-3.54-2.96,2.355,1.588.457a9.151,9.151,0,0,1-17.616.025h0a.578.578,0,0,0-1.139.168.411.411,0,0,0,.011.1l-.011.007a10.317,10.317,0,0,0,19.881.02l1.414.406Z" transform="translate(-32.358 -68.802)" fill="#262536"/>
</svg>
