<svg xmlns="http://www.w3.org/2000/svg" width="23.792" height="19.819" viewBox="0 0 23.792 19.819">
  <g id="Path_635" data-name="Path 635" transform="translate(-169.366 -233.367)" fill="none">
    <path d="M178.88,245.925h0l1.679-1.679a.662.662,0,1,0-.937-.937l-2.81,2.81a.662.662,0,0,0,.476,1.13h7.947a.662.662,0,1,0,0-1.325Zm12.979-7.285H170.666v-2.649a1.325,1.325,0,0,1,1.324-1.325h18.543a1.324,1.324,0,0,1,1.324,1.325v2.649Zm0,1.325v10.6a1.325,1.325,0,0,1-1.324,1.325H171.991a1.325,1.325,0,0,1-1.324-1.325v-10.6h21.192Z" stroke="none"/>
    <path d="M 190.5338745117188 251.8855285644531 C 191.265380859375 251.8855285644531 191.8583679199219 251.2924957275391 191.8583679199219 250.5610198974609 L 191.8583984375 239.9649658203125 L 170.6662902832031 239.9649658203125 L 170.6662902832031 250.5610198974609 C 170.6662902832031 251.2924957275391 171.25927734375 251.8855285644531 171.9907836914062 251.8855285644531 L 190.5338745117188 251.8855285644531 M 180.0908203125 243.1152954101562 C 180.2602996826172 243.1152954101562 180.4297943115234 243.1799468994141 180.5591278076172 243.3092498779297 C 180.8177337646484 243.56787109375 180.8177337646484 243.9871978759766 180.5590667724609 244.2457733154297 L 178.8795776367188 245.9252471923828 L 185.2358703613281 245.9252471923828 C 185.6016387939453 245.9252471923828 185.8981323242188 246.2217254638672 185.8981323242188 246.5874938964844 C 185.8981323242188 246.9532470703125 185.6016387939453 247.249755859375 185.2358703613281 247.249755859375 L 177.288818359375 247.249755859375 C 177.0194244384766 247.2526550292969 176.7751770019531 247.0927734375 176.670654296875 246.8445892333984 C 176.5661468505859 246.596435546875 176.6222686767578 246.3097076416016 176.8126983642578 246.1192779541016 L 179.6225280761719 243.3092498779297 C 179.7518463134766 243.1799468994141 179.9213256835938 243.1152954101562 180.0908203125 243.1152954101562 M 191.8583984375 238.6404724121094 L 191.8583984375 235.991455078125 C 191.8583984375 235.2599487304688 191.2654113769531 234.6669464111328 190.5339050292969 234.6669464111328 L 171.9908142089844 234.6669464111328 C 171.2593231201172 234.6669464111328 170.6663208007812 235.2599487304688 170.6663208007812 235.991455078125 L 170.6663208007812 238.6404724121094 L 191.8583984375 238.6404724121094 M 190.5338745117188 253.1855316162109 L 171.9907836914062 253.1855316162109 C 170.5436401367188 253.1855316162109 169.3662872314453 252.0081787109375 169.3662872314453 250.5610198974609 L 169.3663177490234 235.991455078125 C 169.3663177490234 234.5442962646484 170.5436706542969 233.366943359375 171.9908142089844 233.366943359375 L 190.5339050292969 233.366943359375 C 191.9810485839844 233.366943359375 193.1584014892578 234.5442962646484 193.1584014892578 235.991455078125 L 193.1583709716797 250.5610198974609 C 193.1583709716797 252.0081787109375 191.9810180664062 253.1855316162109 190.5338745117188 253.1855316162109 Z" stroke="none" fill="#ff7600"/>
  </g>
</svg>
