<svg xmlns="http://www.w3.org/2000/svg" width="22" height="21" viewBox="0 0 22 21">
  <g id="Group_675" data-name="Group 675" transform="translate(0.421 -0.5)">
    <rect id="Rectangle_229" data-name="Rectangle 229" width="22" height="21" transform="translate(-0.421 0.5)" fill="rgba(255,255,255,0.01)"/>
    <path id="Path_262" data-name="Path 262" d="M10.284,21.639A8.8,8.8,0,0,1,6.458,19.3,2.64,2.64,0,0,0,4.44,14.964q-.132,0-.261.013A8.864,8.864,0,0,1,4.4,10.564H4.44A2.641,2.641,0,0,0,6.809,6.759a8.785,8.785,0,0,1,3.637-2.036,2.641,2.641,0,0,0,4.706,0,8.785,8.785,0,0,1,3.637,2.036,2.641,2.641,0,0,0,2.369,3.806H21.2a8.864,8.864,0,0,1,.224,4.413q-.129-.013-.261-.013A2.64,2.64,0,0,0,19.14,19.3a8.8,8.8,0,0,1-3.826,2.334,2.641,2.641,0,0,0-5.03,0Z" transform="translate(-2.24 -2.685)" fill="#fff" stroke="#fff" stroke-linejoin="round" stroke-width="1"/>
    <path id="Path_263" data-name="Path 263" d="M20.08,23.159A3.08,3.08,0,1,0,17,20.08,3.08,3.08,0,0,0,20.08,23.159Z" transform="translate(-9.521 -9.56)" fill="#323232" stroke="#fff" stroke-linejoin="round" stroke-width="1"/>
  </g>
</svg>
