<svg xmlns="http://www.w3.org/2000/svg" width="26.615" height="25.228" viewBox="0 0 26.615 25.228">
  <g id="setting" transform="translate(-5.78 -35.651)">
    <path id="Path_1161" data-name="Path 1161" d="M22.961,60.876a1.594,1.594,0,0,1-1.061-.4,5.609,5.609,0,0,0-2.81-1.469,5.549,5.549,0,0,0-2.81,1.469,1.584,1.584,0,0,1-1.658.28l-.081-.038L10.5,58.379a1.6,1.6,0,0,1-.583-1.573,5.591,5.591,0,0,0-.133-3.165,5.629,5.629,0,0,0-2.677-1.7A1.659,1.659,0,0,1,6.022,50.7a17.693,17.693,0,0,1-.242-2.431,17.785,17.785,0,0,1,.242-2.431A1.658,1.658,0,0,1,7.111,44.6a5.558,5.558,0,0,0,2.677-1.7,5.51,5.51,0,0,0,.133-3.165,1.592,1.592,0,0,1,.583-1.573l.076-.052,4.037-2.331a1.584,1.584,0,0,1,1.658.28,5.609,5.609,0,0,0,2.81,1.469,5.549,5.549,0,0,0,2.81-1.469,1.584,1.584,0,0,1,1.658-.28l.081.038,4.037,2.341a1.6,1.6,0,0,1,.583,1.573,5.591,5.591,0,0,0,.133,3.165,5.629,5.629,0,0,0,2.677,1.7,1.658,1.658,0,0,1,1.09,1.241,17.688,17.688,0,0,1,.242,2.431,17.78,17.78,0,0,1-.242,2.431,1.658,1.658,0,0,1-1.09,1.241,5.558,5.558,0,0,0-2.677,1.7,5.51,5.51,0,0,0-.133,3.165,1.6,1.6,0,0,1-.583,1.573l-.076.052-4.037,2.331a1.616,1.616,0,0,1-.6.118Zm-11.424-3.8,3.686,2.132c.4-.36,2.165-1.853,3.862-1.853s3.459,1.488,3.862,1.853l3.686-2.132c-.109-.521-.521-2.8.332-4.269.877-1.521,3.165-2.3,3.577-2.436a15.519,15.519,0,0,0,.213-2.113,15.518,15.518,0,0,0-.213-2.113c-.412-.133-2.7-.915-3.577-2.436-.848-1.474-.441-3.748-.332-4.269l-3.686-2.132c-.4.36-2.165,1.853-3.862,1.853s-3.459-1.488-3.862-1.853l-3.686,2.132c.109.521.521,2.8-.332,4.269-.877,1.521-3.165,2.3-3.577,2.436a15.524,15.524,0,0,0-.213,2.113,15.524,15.524,0,0,0,.213,2.113c.412.133,2.7.915,3.577,2.436.848,1.474.441,3.748.332,4.269Z"/>
    <path id="Path_1162" data-name="Path 1162" d="M305.439,314.292a5.6,5.6,0,1,1,5.6-5.6,5.6,5.6,0,0,1-5.6,5.6Zm0-9.548a3.952,3.952,0,1,0,3.952,3.952,3.955,3.955,0,0,0-3.952-3.952Z" transform="translate(-286.354 -260.433)"/>
  </g>
</svg>
