<svg xmlns="http://www.w3.org/2000/svg" width="18.24" height="13.756" viewBox="0 0 18.24 13.756">
  <g id="Path_1110" data-name="Path 1110" transform="translate(-4.909 -2.9)" fill="none" stroke-linecap="round" stroke-linejoin="round">
    <path d="M14.468,4l7.58,5.939-7.58,5.61v-3.63c-5.9,0-8.46,3.63-8.46,3.63,0-5.61,2.143-7.919,8.46-7.919Z" stroke="none"/>
    <path d="M 14.46846294403076 3.999997138977051 L 14.46846294403076 7.629677772521973 C 8.151943206787109 7.629677772521973 6.008792877197266 9.939467430114746 6.008792877197266 15.54897785186768 C 6.008792877197266 15.54897785186768 8.573043823242188 11.91929817199707 14.46846294403076 11.91929817199707 L 14.46846294403076 15.54897785186768 L 22.04827308654785 9.939477920532227 L 14.46846294403076 3.999997138977051 M 14.46830177307129 2.899990081787109 C 14.70986175537109 2.899990081787109 14.94951915740967 2.979467391967773 15.14693260192871 3.134157180786133 L 22.72674179077148 9.073637962341309 C 22.99702262878418 9.285427093505859 23.15290260314941 9.611287117004395 23.14817237854004 9.95462703704834 C 23.1434440612793 10.29797744750977 22.9786434173584 10.61941719055176 22.70263290405273 10.82367706298828 L 15.12282276153564 16.43317794799805 C 14.78893280029297 16.68027877807617 14.34432315826416 16.71821784973145 13.9733829498291 16.5312671661377 C 13.60245323181152 16.34431838989258 13.36846256256104 15.96435737609863 13.36846256256104 15.54897785186768 L 13.36846256256104 13.06588935852051 C 11.63011741638184 13.21609687805176 10.07048606872559 13.72900199890137 8.719863891601562 14.59623718261719 C 7.532373428344727 15.35871887207031 6.943265914916992 16.13543891906738 6.905130386352539 16.18669509887695 C 6.631704330444336 16.58152389526367 6.137447357177734 16.74776077270508 5.678493499755859 16.60519790649414 C 5.218362808227539 16.46226692199707 4.908792495727539 16.03079795837402 4.908792495727539 15.54897785186768 C 4.908792495727539 12.31861686706543 5.607032775878906 10.14043712615967 7.106193542480469 8.694117546081543 C 8.470157623291016 7.378236770629883 10.47657203674316 6.688799858093262 13.36846256256104 6.554262161254883 L 13.36846256256104 3.999997138977051 C 13.36846256256104 3.579157829284668 13.60858345031738 3.195198059082031 13.98696327209473 3.010976791381836 C 14.13984870910645 2.936546325683594 14.30452442169189 2.899990081787109 14.46830177307129 2.899990081787109 Z" stroke="none" fill="#000"/>
  </g>
</svg>
