<svg xmlns="http://www.w3.org/2000/svg" width="20" height="22.387" viewBox="0 0 20 22.387">
  <g id="shield-check" transform="translate(-2 -0.552)">
    <path id="Path_1128" data-name="Path 1128" d="M16.53,9.78a.75.75,0,0,0-1.06-1.06L11,13.19,9.03,11.22a.75.75,0,0,0-1.06,1.06l2.5,2.5a.75.75,0,0,0,1.06,0l5-5Z"/>
    <path id="Path_1129" data-name="Path 1129" d="M12.54.637l8.25,2.675A1.75,1.75,0,0,1,22,4.976V10c0,6.19-3.771,10.7-9.4,12.83a1.7,1.7,0,0,1-1.2,0C5.77,20.7,2,16.19,2,10V4.976A1.75,1.75,0,0,1,3.21,3.312L11.46.637a1.748,1.748,0,0,1,1.08,0Zm-.617,1.426L3.673,4.739a.249.249,0,0,0-.173.237V10c0,5.46,3.28,9.483,8.43,11.426a.2.2,0,0,0,.14,0C17.22,19.483,20.5,15.461,20.5,10V4.976a.25.25,0,0,0-.173-.237l-8.25-2.676a.253.253,0,0,0-.154,0Z"/>
  </g>
</svg>
