<svg xmlns="http://www.w3.org/2000/svg" width="21.329" height="19.784" viewBox="0 0 21.329 19.784">
  <g id="Group_249" data-name="Group 249" transform="translate(0.572 0.55)">
    <path id="Path_123" data-name="Path 123" d="M25.4,22v8.133H8.039V22" transform="translate(-6.626 -11.45)" fill="none" stroke="#ff7600" stroke-linecap="round" stroke-linejoin="round" stroke-width="1.1"/>
    <g id="Group_248" data-name="Group 248" transform="translate(0)">
      <g id="Group_247" data-name="Group 247" transform="translate(0)">
        <path id="Path_124" data-name="Path 124" d="M5.655,10.505a3.489,3.489,0,0,0,3.074,4.764c1.8,0,3.265-.961,3.265-2.881,0,1.92,1.457,2.881,3.255,2.881H15.8c1.8,0,3.255-.961,3.255-2.881,0,1.92,1.468,2.881,3.265,2.881A3.491,3.491,0,0,0,25.4,10.5L23.767,6H7.284Z" transform="translate(-5.433 -6)" fill="none" stroke="#ff7600" stroke-linejoin="round" stroke-width="1.1"/>
        <line id="Line_16" data-name="Line 16" x2="17.204" transform="translate(1.642 3.414)" fill="none" stroke="#ff7600" stroke-linecap="round" stroke-width="1.1"/>
      </g>
      <line id="Line_17" data-name="Line 17" x2="2.867" transform="translate(0.209 3.414)" fill="none" stroke="#ff7600" stroke-width="1.1"/>
    </g>
  </g>
</svg>
