<svg xmlns="http://www.w3.org/2000/svg" width="20.313" height="18.839" viewBox="0 0 20.313 18.839">
  <g id="店铺" transform="translate(-15.479 -743.172)">
    <path id="Path_123" data-name="Path 123" d="M24.612,22v7.765H8.039V22" transform="translate(9.311 731.745)" fill="none" stroke="#000" stroke-linecap="round" stroke-linejoin="round" stroke-width="1"/>
    <path id="Path_124" data-name="Path 124" d="M5.645,10.3A3.331,3.331,0,0,0,8.58,14.85c1.716,0,3.117-.918,3.117-2.751,0,1.833,1.391,2.751,3.107,2.751h.527c1.716,0,3.107-.918,3.107-2.751,0,1.833,1.4,2.751,3.117,2.751A3.333,3.333,0,0,0,24.493,10.3L22.938,6H7.2Z" transform="translate(10.567 737.672)" fill="none" stroke="#000" stroke-linejoin="round" stroke-width="1"/>
    <line id="Line_16" data-name="Line 16" x2="16.426" transform="translate(17.568 746.932)" fill="none" stroke="#000" stroke-linecap="round" stroke-width="1"/>
    <line id="Line_17" data-name="Line 17" x2="2.738" transform="translate(16.199 746.932)" fill="none" stroke="#000" stroke-width="1"/>
  </g>
</svg>
