<svg xmlns="http://www.w3.org/2000/svg" width="12.347" height="11.478" viewBox="0 0 12.347 11.478">
  <g id="Group_249" data-name="Group 249" transform="translate(-317.841 -204.358)">
    <path id="Path_123" data-name="Path 123" d="M17.774,22v4.561H8.039V22" transform="translate(311.108 188.775)" fill="none" stroke="#9a9a9a" stroke-linecap="round" stroke-linejoin="round" stroke-width="1"/>
    <g id="Group_248" data-name="Group 248" transform="translate(318.355 204.858)">
      <g id="Group_247" data-name="Group 247" transform="translate(0)">
        <path id="Path_124" data-name="Path 124" d="M5.558,8.527A1.957,1.957,0,0,0,7.282,11.2,1.624,1.624,0,0,0,9.112,9.582,1.62,1.62,0,0,0,10.938,11.2h.31a1.62,1.62,0,0,0,1.825-1.616A1.625,1.625,0,0,0,14.9,11.2a1.958,1.958,0,0,0,1.725-2.673L15.715,6H6.471Z" transform="translate(-5.433 -6)" fill="none" stroke="#9a9a9a" stroke-linejoin="round" stroke-width="1"/>
        <line id="Line_16" data-name="Line 16" x2="9.649" transform="translate(0.921 1.915)" fill="none" stroke="#9a9a9a" stroke-linecap="round" stroke-width="1"/>
      </g>
      <line id="Line_17" data-name="Line 17" x2="1.608" transform="translate(0.117 1.915)" fill="none" stroke="#9a9a9a" stroke-width="1"/>
    </g>
  </g>
</svg>
