<svg xmlns="http://www.w3.org/2000/svg" width="8.449" height="8.027" viewBox="0 0 8.449 8.027">
  <g id="Group_274" data-name="Group 274" transform="translate(-166.066 -1236.934)">
    <g id="Group_267" data-name="Group 267" transform="translate(166.666 1237.534)">
      <g id="Path_67" data-name="Path 67" transform="translate(-14.526 -18.316)" fill="#e9422c" stroke-linejoin="round">
        <path d="M 15.51102161407471 25.69516563415527 L 15.61824131011963 25.09068489074707 L 16.02619934082031 22.79068946838379 L 14.31761169433594 21.13477516174316 L 13.87868118286133 20.70936584472656 L 14.48372173309326 20.62239456176758 L 16.84398651123047 20.28313255310059 L 17.88191223144531 18.18288421630859 L 18.14912223815918 17.64218521118164 L 18.41912078857422 18.18149566650391 L 19.47129058837891 20.28313255310059 L 21.81874084472656 20.62243461608887 L 22.42244148254395 20.70969581604004 L 21.98479080200195 21.13458442687988 L 20.27900123596191 22.79067802429199 L 20.68402099609375 25.09105491638184 L 20.79029083251953 25.69463539123535 L 20.24841117858887 25.4083251953125 L 18.15087699890137 24.30004501342773 L 16.05380249023438 25.40831565856934 L 15.51102161407471 25.69516563415527 Z" stroke="none"/>
        <path d="M 18.1508617401123 18.3157958984375 L 17.04297065734863 20.55761528015137 L 14.52640151977539 20.91934585571289 L 16.34942245483398 22.68616485595703 L 15.91363143920898 25.14307403564453 L 18.1508617401123 23.96073532104492 L 20.3885612487793 25.14307403564453 L 19.95598220825195 22.68616485595703 L 21.77582168579102 20.91934585571289 L 19.27321243286133 20.55761528015137 L 18.1508617401123 18.3157958984375 M 18.15087509155273 17.71579360961914 C 18.37798309326172 17.71579360961914 18.58567237854004 17.84403419494629 18.68738174438477 18.04719543457031 L 19.66936302185059 20.00863838195801 L 21.86165237426758 20.32551574707031 C 22.08798217773438 20.35823440551758 22.27604293823242 20.51675415039062 22.34657287597656 20.73429489135742 C 22.4171028137207 20.95182418823242 22.35784149169922 21.1905345916748 22.19377136230469 21.34983444213867 L 20.60201644897461 22.89521598815918 L 20.97947120666504 25.03903579711914 C 21.01919174194336 25.2646541595459 20.92698287963867 25.49319458007812 20.74180221557617 25.62807464599609 C 20.55662155151367 25.76294708251953 20.31081390380859 25.78059768676758 20.10826110839844 25.67357444763184 L 18.15089797973633 24.63935661315918 L 16.1939811706543 25.67355537414551 C 15.99131011962891 25.78065872192383 15.74532318115234 25.76292610168457 15.56010246276855 25.62786483764648 C 15.37489128112793 25.49279403686523 15.28282165527344 25.26399421691895 15.32285118103027 25.03828430175781 L 15.70297813415527 22.89519691467285 L 14.10883140563965 21.35019493103027 C 13.94449234008789 21.19092559814453 13.88507080078125 20.95202445983887 13.95564079284668 20.73431587219238 C 14.02622222900391 20.51660537719727 14.21450233459473 20.3580150604248 14.44103240966797 20.3254451751709 L 16.64499473571777 20.00864791870117 L 17.61296081542969 18.04996490478516 C 17.71407890319824 17.84536361694336 17.92266464233398 17.71531677246094 18.15087509155273 17.71579360961914 Z" stroke="none" fill="#e9422c"/>
      </g>
    </g>
    <g id="Group_273" data-name="Group 273" transform="translate(167.022 1237.87)">
      <g id="Path_67-2" data-name="Path 67" transform="translate(-14.526 -18.316)" fill="#e9422c" stroke-linejoin="round">
        <path d="M 15.3747730255127 25.02461051940918 L 15.48199272155762 24.42013168334961 L 15.8471508026123 22.36144638061523 L 14.31761264801025 20.87906074523926 L 13.87868309020996 20.45365142822266 L 14.48372268676758 20.3666820526123 L 16.59682655334473 20.06293869018555 L 17.52593231201172 18.18289184570312 L 17.79314231872559 17.64219093322754 L 18.06314277648926 18.1815013885498 L 19.00507164001465 20.06293869018555 L 21.10673332214355 20.36672210693359 L 21.71043395996094 20.45398139953613 L 21.27278327941895 20.87887191772461 L 19.74572372436523 22.36143493652344 L 20.10825347900391 24.42050170898438 L 20.21452331542969 25.02408027648926 L 19.67264366149902 24.73777198791504 L 17.79489707946777 23.74562072753906 L 15.91755294799805 24.73776054382324 L 15.3747730255127 25.02461051940918 Z" stroke="none"/>
        <path d="M 17.79488372802734 18.3158016204834 L 16.79581260681152 20.33742141723633 L 14.52639389038086 20.66363143920898 L 16.17037391662598 22.25692176818848 L 15.77737236022949 24.47252082824707 L 17.79488372802734 23.40631103515625 L 19.81279373168945 24.47252082824707 L 19.42270278930664 22.25692176818848 L 21.06381225585938 20.66363143920898 L 18.80699348449707 20.33742141723633 L 17.79488372802734 18.3158016204834 M 17.79489707946777 17.71579933166504 C 18.02200508117676 17.71579933166504 18.22969245910645 17.84404182434082 18.3314037322998 18.04720115661621 L 19.20314598083496 19.7884464263916 L 21.14964294433594 20.06980133056641 C 21.37598419189453 20.1025218963623 21.56403350830078 20.26104164123535 21.63456344604492 20.47858047485352 C 21.70509338378906 20.69611167907715 21.64583206176758 20.93482208251953 21.48176193237305 21.0941219329834 L 20.0687370300293 22.46597290039062 L 20.40370178222656 24.36848068237305 C 20.44342422485352 24.59410095214844 20.3512134552002 24.82264137268066 20.1660327911377 24.95752143859863 C 19.98085403442383 25.0923900604248 19.73504257202148 25.11004257202148 19.53249359130859 25.00302124023438 L 17.7949161529541 24.08493232727051 L 16.05772399902344 25.00300216674805 C 15.85503768920898 25.11010932922363 15.60905265808105 25.09236717224121 15.42384338378906 24.95730209350586 C 15.23862266540527 24.82224082946777 15.14656257629395 24.59344100952148 15.18659400939941 24.36773109436035 L 15.52392768859863 22.4659538269043 L 14.10882377624512 21.09448051452637 C 13.94448280334473 20.93521118164062 13.88506317138672 20.69631195068359 13.95563316345215 20.47860145568848 C 14.02621269226074 20.26089096069336 14.21449279785156 20.1023006439209 14.4410228729248 20.06973075866699 L 16.39783668518066 19.78845596313477 L 17.25698280334473 18.04997062683105 C 17.35810089111328 17.84536933898926 17.56650733947754 17.71591377258301 17.79489707946777 17.71579933166504 Z" stroke="none" fill="#e9422c"/>
      </g>
    </g>
  </g>
</svg>
