<svg xmlns="http://www.w3.org/2000/svg" width="21.891" height="21.052" viewBox="0 0 21.891 21.052">
  <g id="Group_3029" data-name="Group 3029" transform="translate(-3.55 -5.161)">
    <circle id="Ellipse_61" data-name="Ellipse 61" cx="3.779" cy="3.779" r="3.779" transform="translate(10.477 5.611)" fill="none" stroke="#eb4b3a" stroke-linecap="round" stroke-linejoin="round" stroke-width="0.9"/>
    <path id="Path_335" data-name="Path 335" d="M4,34.091C4,29.07,8.579,25,14.227,25" transform="translate(0 -8.896)" fill="none" stroke="#eb4b3a" stroke-linecap="round" stroke-linejoin="round" stroke-width="0.9"/>
    <path id="Path_336" data-name="Path 336" d="M30.188,28A2.389,2.389,0,0,0,28,30.549c0,2.549,2.585,4.866,3.977,5.405,1.392-.539,3.977-2.856,3.977-5.405A2.389,2.389,0,0,0,33.767,28a2.113,2.113,0,0,0-1.79,1.083A2.113,2.113,0,0,0,30.188,28Z" transform="translate(-10.963 -10.191)" fill="#eb4b3a" stroke="#eb4b3a" stroke-linecap="round" stroke-linejoin="round" stroke-width="0.9"/>
  </g>
</svg>
