<svg xmlns="http://www.w3.org/2000/svg" width="48" height="48" viewBox="0 0 48 48">
  <g id="Group_637" data-name="Group 637" transform="translate(-12 -192)">
    <g id="Ellipse_46" data-name="Ellipse 46" transform="translate(12 192)" fill="#fdf1ec" stroke="#ff7600" stroke-width="1">
      <circle cx="24" cy="24" r="24" stroke="none"/>
      <circle cx="24" cy="24" r="23.5" fill="none"/>
    </g>
    <g id="Group_636" data-name="Group 636" transform="translate(21 200)">
      <rect id="Rectangle_223" data-name="Rectangle 223" width="31" height="31" fill="rgba(255,255,255,0.01)"/>
      <path id="Path_247" data-name="Path 247" d="M31.15,0H0V31.15H31.15Z" fill="rgba(255,255,255,0.01)"/>
      <path id="Path_248" data-name="Path 248" d="M10.6,36.192A2.6,2.6,0,1,0,8,33.6,2.6,2.6,0,0,0,10.6,36.192Z" transform="translate(-2.808 -10.882)" fill="none" stroke="#ff7600" stroke-linejoin="round" stroke-width="1"/>
      <path id="Path_249" data-name="Path 249" d="M33.6,36.192A2.6,2.6,0,1,0,31,33.6,2.6,2.6,0,0,0,33.6,36.192Z" transform="translate(-10.882 -10.882)" fill="none" stroke="#ff7600" stroke-linejoin="round" stroke-width="1"/>
      <path id="Path_250" data-name="Path 250" d="M5.894,26.575H2V11H20.82V26.575H11.086" transform="translate(-0.702 -3.861)" fill="rgba(255,118,0,0)" stroke="#ff7600" stroke-linecap="round" stroke-linejoin="round" stroke-width="1"/>
      <path id="Path_251" data-name="Path 251" d="M31,29.032V18h5.563l4.172,5.516v5.516H36.718" transform="translate(-10.882 -6.319)" fill="none" stroke="#ff7600" stroke-linecap="round" stroke-linejoin="round" stroke-width="1"/>
    </g>
  </g>
</svg>
